<svg width="34" height="32" viewBox="0 0 34 32" fill="none" xmlns="http://www.w3.org/2000/svg">
<g clip-path="url(#clip0_7213_1104)">
<path d="M32.834 16.4485C32.8264 16.2143 32.8204 15.9796 32.7981 15.7466C32.7615 15.3658 32.7206 14.9849 32.6655 14.6064C32.6049 14.1901 32.5452 13.772 32.4504 13.3627C32.3206 12.8018 32.1745 12.2436 32.0049 11.6936C31.8605 11.2251 31.6872 10.764 31.5009 10.3106C31.2358 9.66582 30.919 9.04503 30.5618 8.44555C30.1112 7.6888 29.6006 6.97503 29.026 6.30722C28.5647 5.77113 28.0764 5.26041 27.5373 4.8027C27.1205 4.4489 26.696 4.10125 26.251 3.78443C25.7868 3.45369 25.3023 3.14885 24.8111 2.85897C24.3962 2.61418 23.9628 2.39967 23.5304 2.18623C23.2532 2.04939 22.9671 1.92893 22.6781 1.81921C22.2492 1.65649 21.8172 1.50045 21.3807 1.35956C21.1086 1.27168 20.8271 1.21057 20.5473 1.14911C20.2226 1.07779 19.8959 1.01491 19.5685 0.956622C19.3473 0.917349 19.1242 0.887763 18.9008 0.862403C18.6867 0.8381 18.4717 0.819256 18.2565 0.807809C17.828 0.784914 17.3993 0.760259 16.9705 0.75251C16.6588 0.746874 16.3465 0.762724 16.0348 0.776989C15.7444 0.790374 15.454 0.807456 15.1648 0.835458C14.8864 0.862403 14.6087 0.900971 14.3318 0.942181C14.021 0.988674 13.7093 1.0327 13.4023 1.09822C13.0274 1.17799 12.6547 1.27063 12.2854 1.3733C11.9915 1.45519 11.702 1.55469 11.4142 1.65719C11.121 1.76162 10.83 1.87345 10.5426 1.99268C10.2739 2.10416 10.005 2.2181 9.74661 2.35142C9.3037 2.58019 8.86853 2.8241 8.43089 3.06326C8.35428 3.10517 8.28155 3.15413 8.20741 3.20045C8.13555 3.24553 8.06423 3.29132 7.9929 3.33693C7.91911 3.38413 7.8411 3.4264 7.77294 3.48082C7.71306 3.52854 7.64297 3.5569 7.58098 3.60251C7.27402 3.82793 6.95614 4.03838 6.66309 4.28247C6.39259 4.50789 6.11451 4.72486 5.85475 4.96191C5.5742 5.21815 5.30616 5.48865 5.04217 5.76215C4.82485 5.98722 4.61863 6.22339 4.41328 6.45955C4.28313 6.60924 4.16285 6.76739 4.0394 6.9229C3.69475 7.35754 3.37476 7.80979 3.09456 8.28881C2.87971 8.65618 2.66714 9.02531 2.46937 9.40218C2.20785 9.90075 1.97714 10.4146 1.79434 10.9479C1.64799 11.3748 1.50657 11.8038 1.37784 12.2363C1.28239 12.5567 1.19574 12.8814 1.13181 13.2093C1.03337 13.7135 0.939498 14.2199 0.877508 14.7294C0.808824 15.2947 0.767967 15.864 0.734506 16.4329C0.714077 16.7803 0.731688 17.1297 0.72887 17.4784C0.728342 17.5503 0.754054 17.5797 0.825555 17.5792C1.15383 17.5774 1.4821 17.5764 1.81037 17.5778C1.88416 17.5781 1.89895 17.5413 1.89684 17.4783C1.88979 17.2794 1.88856 17.0803 1.87764 16.8816C1.87341 16.8046 1.90423 16.7819 1.97256 16.7828C2.13353 16.7851 2.29467 16.7867 2.45563 16.7876C2.67243 16.7888 2.88922 16.7906 3.10601 16.789C3.1511 16.7886 3.19917 16.7874 3.20217 16.7159C3.21731 16.3475 3.22189 15.9778 3.25764 15.6111C3.30008 15.1781 3.35538 14.745 3.43322 14.3171C3.5079 13.9069 3.61127 13.5015 3.71588 13.0977C3.78457 12.8326 3.87702 12.5739 3.96032 12.3128C3.9767 12.2617 3.99044 12.2117 3.92616 12.1877C3.80623 12.1432 3.68471 12.1034 3.5639 12.0609C3.31875 11.975 3.07396 11.8873 2.82811 11.8033C2.76612 11.7821 2.75309 11.7519 2.77827 11.6923C2.97798 11.2223 3.16906 10.7485 3.37793 10.2826C3.48482 10.0441 3.61796 9.81692 3.74705 9.58904C3.91929 9.28489 4.08924 8.97899 4.27803 8.68524C4.47862 8.37334 4.69541 8.07149 4.91414 7.77193C5.06507 7.56517 5.23131 7.36951 5.39703 7.16118C5.50886 7.25451 5.60643 7.33535 5.70329 7.41724C5.91498 7.59599 6.12684 7.77457 6.33746 7.95455C6.38713 7.997 6.42323 7.9977 6.4699 7.94575C6.69409 7.69638 6.91106 7.43908 7.15057 7.20503C7.47056 6.89225 7.79971 6.58741 8.14225 6.29982C8.44199 6.04816 8.76039 5.81763 9.08021 5.59133C9.33504 5.41099 9.60344 5.24967 9.86778 5.08342C9.9391 5.03851 9.95601 4.99766 9.90828 4.92105C9.79892 4.74529 9.69818 4.56425 9.59357 4.38567C9.51573 4.25271 9.43824 4.11922 9.35882 3.98713C9.30088 3.89098 9.30405 3.87636 9.40496 3.82159C9.56645 3.73406 9.72566 3.64231 9.88944 3.55954C10.1682 3.41865 10.4479 3.27952 10.7307 3.14709C10.9044 3.06572 11.0829 2.99352 11.2622 2.92501C11.5452 2.81705 11.8288 2.71033 12.1157 2.61329C12.3604 2.53052 12.6091 2.45832 12.8581 2.3884C13.0885 2.32377 13.3202 2.26442 13.5534 2.21053C13.7841 2.15734 14.0176 2.11649 14.2485 2.06453C14.3153 2.04956 14.3364 2.06788 14.348 2.13163C14.4157 2.50534 14.4893 2.87781 14.5548 3.25187C14.5685 3.33024 14.6018 3.34873 14.6728 3.33869C14.866 3.3114 15.0592 3.28093 15.2534 3.26297C15.6146 3.22951 15.976 3.18988 16.3381 3.17931C16.7299 3.16769 17.1227 3.18284 17.5149 3.19305C17.7517 3.19921 17.9893 3.20802 18.2246 3.23391C18.5643 3.27124 18.9028 3.32144 19.2404 3.37515C19.3212 3.38801 19.3399 3.35613 19.3515 3.29449C19.4211 2.92096 19.4922 2.54761 19.5581 2.17337C19.5683 2.11561 19.5852 2.09676 19.6423 2.10874C19.7967 2.14097 19.9543 2.16122 20.1061 2.2026C20.6246 2.34455 21.1438 2.48491 21.6575 2.64306C21.9419 2.73058 22.2188 2.84541 22.494 2.96006C22.8232 3.09725 23.1523 3.2369 23.4718 3.39505C23.8124 3.56376 24.1408 3.75643 24.4762 3.93571C24.5434 3.97164 24.5543 4.00457 24.5137 4.0722C24.3386 4.36313 24.1683 4.65688 23.997 4.94993C23.8941 5.12586 23.8939 5.12692 24.0665 5.2347C24.641 5.59379 25.1915 5.98757 25.6992 6.4356C26.0613 6.75506 26.4076 7.09302 26.7496 7.43397C26.9463 7.62998 27.1212 7.84765 27.3047 8.05687C27.3395 8.0965 27.3651 8.12221 27.4186 8.07642C27.6789 7.85329 27.9439 7.63562 28.2041 7.41231C28.3738 7.26649 28.371 7.26385 28.5087 7.43767C29.0908 8.17152 29.6084 8.94817 30.0476 9.77589C30.3896 10.4201 30.6826 11.0863 30.9303 11.7725C30.9568 11.8461 30.9244 11.8713 30.8619 11.8929C30.5167 12.0136 30.1721 12.1354 29.8283 12.2596C29.7121 12.3015 29.7174 12.304 29.7533 12.4242C29.8632 12.7914 29.9837 13.1563 30.074 13.5283C30.1735 13.9376 30.2501 14.3527 30.3248 14.7674C30.3693 15.0145 30.4025 15.2649 30.4202 15.5153C30.4482 15.9098 30.4602 16.3054 30.4752 16.7006C30.4776 16.764 30.5023 16.7821 30.5595 16.7817C30.9396 16.7791 31.3196 16.7789 31.6997 16.7749C31.7719 16.7742 31.8018 16.8011 31.7994 16.8726C31.7923 17.0686 31.7909 17.2652 31.7793 17.4608C31.7745 17.5427 31.7987 17.5704 31.8807 17.5691C32.1678 17.5651 32.4548 17.5668 32.7419 17.566C32.8583 17.5656 32.8601 17.5653 32.8578 17.4492C32.8509 17.1153 32.8448 16.7812 32.8338 16.4473L32.834 16.4485Z" fill="white"/>
<path d="M5.96995 19.5375C5.862 19.5305 5.75281 19.5428 5.64485 19.5356C5.55715 19.5298 5.52105 19.5585 5.52263 19.6469C5.52563 19.8226 5.52545 19.9986 5.52316 20.1745C5.52228 20.2411 5.5568 20.25 5.61192 20.25C6.15663 20.25 6.70152 20.2525 7.24623 20.2527C7.74392 20.2529 8.2416 20.2509 8.73929 20.2507C9.11635 20.2507 9.49322 20.2523 9.87028 20.252C10.4675 20.2516 11.0645 20.2499 11.6617 20.2493C11.9191 20.2492 12.1768 20.2506 12.4343 20.2507C12.4774 20.2507 12.5183 20.2462 12.5181 20.1865C12.5176 19.9961 12.5179 19.8057 12.5183 19.6153C12.5183 19.5551 12.4904 19.5342 12.4302 19.537C12.3367 19.5414 12.2423 19.5324 12.1491 19.54C12.0715 19.5463 12.0329 19.5148 12.0044 19.4472C11.8931 19.1828 11.7774 18.9206 11.6654 18.6566C11.3568 17.9298 11.0499 17.2023 10.741 16.4755C10.5406 16.004 10.3377 15.5338 10.1364 15.0627C9.89634 14.5011 9.65648 13.9395 9.41732 13.3775C9.37699 13.2828 9.34018 13.1864 9.30038 13.0878C9.31588 13.0878 9.32275 13.0857 9.32715 13.0882C9.34758 13.0994 9.36801 13.111 9.38738 13.1239C9.68694 13.3233 10.0152 13.4622 10.3586 13.5614C10.6658 13.6499 10.9821 13.6919 11.3019 13.7135C11.8996 13.754 12.458 13.6322 12.9795 13.3365C13.2088 13.2065 13.4377 13.0755 13.6732 12.9571C14.1432 12.721 14.6446 12.5859 15.1664 12.5281C15.3903 12.5035 15.6154 12.4897 15.8399 12.4709C15.913 12.4647 15.9521 12.4883 15.9389 12.5707C15.9325 12.6107 15.9394 12.6528 15.938 12.6937C15.9361 12.7486 15.9591 12.7754 16.016 12.774C16.0921 12.772 16.1685 12.7756 16.2444 12.7719C16.3018 12.769 16.3235 12.7909 16.3219 12.8481C16.3184 12.971 16.318 13.0941 16.3182 13.2171C16.3193 14.1667 16.3217 15.1161 16.3221 16.0657C16.3224 16.9832 16.3205 17.9007 16.3207 18.8183C16.3207 19.6919 16.3219 20.5658 16.3228 21.4395C16.3231 21.9173 16.3246 22.3951 16.3231 22.8729C16.323 22.9394 16.3416 22.9706 16.4135 22.9655C16.4806 22.9607 16.5489 22.9606 16.6157 22.9678C16.7032 22.9773 16.7241 22.9422 16.724 22.8586C16.722 21.7329 16.7236 20.6074 16.724 19.4817C16.7243 18.2417 16.7238 17.0017 16.7243 15.7617C16.7247 14.7943 16.727 13.8271 16.7252 12.8597C16.7252 12.7874 16.7472 12.7631 16.8152 12.7719C16.8325 12.7741 16.8504 12.772 16.868 12.7719C16.9862 12.7708 16.9858 12.7708 16.9857 12.8851C16.9846 13.6552 16.9832 14.4254 16.983 15.1955C16.983 15.8755 16.985 16.5554 16.985 17.2354C16.985 17.76 16.9823 18.2846 16.9827 18.8095C16.983 19.6241 16.9855 20.4388 16.986 21.2537C16.9864 21.7988 16.9855 22.3438 16.9836 22.8889C16.9834 22.9458 17.0043 22.9685 17.0614 22.9665C17.1405 22.9639 17.2197 22.9651 17.2988 22.9673C17.3685 22.9692 17.3897 22.9345 17.3893 22.8692C17.3865 22.2137 17.3839 21.5582 17.384 20.9027C17.3842 20.0512 17.3881 19.1997 17.3884 18.3482C17.3886 17.8157 17.3833 17.2831 17.3837 16.7506C17.3842 16.1241 17.3891 15.4979 17.3902 14.8716C17.3911 14.2198 17.389 13.5681 17.3895 12.9161C17.3895 12.7729 17.392 12.7729 17.5367 12.7734C17.7567 12.7741 17.7579 12.7741 17.7637 12.5487C17.7653 12.489 17.7831 12.4656 17.8477 12.4726C17.9988 12.489 18.1506 12.5003 18.3024 12.51C18.6274 12.5308 18.9451 12.5931 19.2586 12.6766C19.7471 12.8066 20.1868 13.0454 20.6195 13.2981C21.0168 13.53 21.4393 13.686 21.9009 13.7141C22.2228 13.7336 22.5441 13.7141 22.8627 13.6596C23.3431 13.5772 23.7978 13.424 24.2148 13.1678C24.3002 13.1153 24.3816 13.0559 24.4875 12.9842C24.4737 13.0304 24.4697 13.0513 24.4614 13.0707C24.3011 13.4508 24.141 13.8308 23.9797 14.2105C23.7508 14.7491 23.5199 15.2867 23.2917 15.8256C23.0694 16.3504 22.85 16.8765 22.6286 17.4016C22.4432 17.8412 22.257 18.2804 22.0707 18.7196C21.9666 18.9646 21.8601 19.2087 21.7577 19.4544C21.7304 19.5199 21.6936 19.55 21.6186 19.5435C21.5344 19.5361 21.4487 19.547 21.364 19.5419C21.2979 19.5379 21.2826 19.5688 21.2829 19.6254C21.2842 19.8071 21.2844 19.9889 21.2831 20.1704C21.2828 20.2317 21.3069 20.2479 21.3689 20.2472C21.6788 20.2441 21.9886 20.2472 22.2986 20.2476C22.9218 20.2485 23.5453 20.2495 24.1685 20.2493C24.789 20.2493 25.4094 20.2474 26.03 20.2472C26.7466 20.2472 27.4632 20.2479 28.1798 20.249C28.2493 20.249 28.2781 20.224 28.2759 20.149C28.2708 19.9762 28.2731 19.8031 28.2759 19.6301C28.277 19.5666 28.2555 19.5391 28.1895 19.5405C28.0519 19.5433 27.9139 19.5456 27.7767 19.5384C27.7423 19.5366 27.6928 19.5058 27.6795 19.4753C27.5428 19.1647 27.413 18.851 27.2797 18.539C26.9394 17.7424 26.5985 16.9462 26.2574 16.15C26.2466 16.125 26.2313 16.1019 26.2174 16.0764C26.1533 16.1195 26.1513 16.1673 26.1749 16.2219C26.2339 16.3591 26.2921 16.4964 26.3509 16.6336C26.5242 17.0371 26.6982 17.4402 26.8711 17.844C27.0715 18.3119 27.2712 18.7802 27.4704 19.2489C27.5097 19.3411 27.5453 19.4348 27.5861 19.5368C27.5458 19.5393 27.5231 19.5417 27.5005 19.5417C27.2841 19.541 27.0676 19.5393 26.851 19.5391C26.1749 19.5387 25.4987 19.5377 24.8226 19.5407C24.7528 19.541 24.7359 19.5181 24.7379 19.4549C24.7414 19.3406 24.7389 19.2261 24.7391 19.1118C24.7391 19.047 24.7095 19.0116 24.6326 19.0048C24.6326 19.1567 24.6276 19.3001 24.6345 19.4429C24.6384 19.5245 24.606 19.5428 24.5332 19.5417C24.3105 19.5386 24.0877 19.5396 23.8651 19.54C23.2151 19.541 22.5649 19.5423 21.9148 19.5444C21.8474 19.5445 21.8407 19.5178 21.8652 19.4627C21.9067 19.3695 21.9439 19.2744 21.9839 19.1803C22.301 18.434 22.6182 17.6878 22.9359 16.9416C23.2693 16.1585 23.6043 15.3758 23.9368 14.5923C24.1402 14.1129 24.34 13.6322 24.542 13.1523C24.5612 13.1065 24.5838 13.0619 24.6047 13.0168C24.6278 13.0478 24.6313 13.0728 24.6313 13.0978C24.6319 14.2058 24.632 15.3137 24.6322 16.4216C24.6322 16.5769 24.6301 16.7322 24.6356 16.8874C24.6364 16.9122 24.6718 16.9358 24.6914 16.9599C24.7076 16.9362 24.727 16.9138 24.7388 16.8881C24.7455 16.8737 24.7398 16.8534 24.7398 16.8358C24.7395 16.5484 24.7389 16.2611 24.7388 15.9737C24.7384 15.0444 24.7382 14.1152 24.7379 13.1859C24.7379 13.1017 24.7379 13.0174 24.7379 12.9332C24.749 12.9321 24.7601 12.9312 24.7712 12.9302C25.0947 13.6869 25.4182 14.4437 25.7456 15.2092C25.809 15.1464 25.8159 15.1043 25.7882 15.0421C25.6653 14.767 25.5494 14.4886 25.4318 14.2112C25.2446 13.7697 25.0598 13.3271 24.8687 12.8872C24.8411 12.8238 24.8444 12.7953 24.899 12.7509C25.0883 12.5973 25.1246 12.3388 24.9858 12.1546C24.8569 11.9836 24.6141 11.8908 24.3876 12.0428C24.1745 12.1858 24.1245 12.4807 24.286 12.6806C24.2999 12.6979 24.3108 12.7174 24.326 12.7403C24.3024 12.755 24.2862 12.7668 24.2687 12.7757C23.8358 12.9985 23.3896 13.1785 22.904 13.2577C22.3813 13.3432 21.8764 13.2893 21.4071 13.0538C21.0315 12.8654 20.6741 12.6382 20.3177 12.414C20.0095 12.2201 19.6958 12.0392 19.3572 11.9061C18.8709 11.7152 18.3683 11.5817 17.8521 11.5009C17.7889 11.491 17.7606 11.4616 17.7627 11.3956C17.7665 11.2754 17.7632 11.1552 17.7669 11.0352C17.7688 10.9752 17.747 10.9495 17.6861 10.9502C17.5017 10.9523 17.3171 10.95 17.1327 10.9539C17.073 10.9551 17.0471 10.9398 17.0485 10.8757C17.0521 10.7297 17.0519 10.5835 17.0491 10.4375C17.048 10.3792 17.0656 10.3426 17.116 10.3075C17.3168 10.1682 17.3708 9.9046 17.2484 9.69169C17.131 9.48705 16.8659 9.39987 16.6535 9.49567C16.3256 9.64396 16.277 10.0754 16.5611 10.3003C16.5947 10.3269 16.634 10.3704 16.6363 10.4081C16.6456 10.5629 16.6417 10.7184 16.6423 10.8737C16.6423 10.9294 16.6248 10.956 16.5581 10.9535C16.3827 10.947 16.2069 10.9518 16.0313 10.9498C15.96 10.9489 15.9302 10.9773 15.9362 11.0507C15.9422 11.1235 15.9385 11.1971 15.9406 11.2702C15.9445 11.4064 15.8783 11.4864 15.742 11.5102C15.7362 11.5113 15.7304 11.512 15.7247 11.5136C15.3375 11.615 14.944 11.6974 14.565 11.8239C14.2618 11.9249 13.967 12.062 13.6857 12.215C13.3832 12.3795 13.1033 12.5848 12.8094 12.7657C12.4468 12.9887 12.0702 13.1767 11.6435 13.2546C11.2975 13.3178 10.9565 13.3012 10.6165 13.2349C10.2848 13.17 9.9703 13.0496 9.66475 12.9069C9.55785 12.8571 9.45289 12.8027 9.34247 12.7481C9.36184 12.7174 9.37135 12.6997 9.38333 12.6835C9.48037 12.5523 9.51312 12.4135 9.45289 12.2543C9.39601 12.1042 9.22377 11.9603 9.05647 11.9646C8.89233 11.9686 8.74739 12.034 8.66339 12.1882C8.53888 12.4166 8.59946 12.6507 8.824 12.7858C8.88951 12.825 8.89004 12.8622 8.86327 12.92C8.8314 12.989 8.80234 13.0593 8.77258 13.1294C8.53183 13.6971 8.29127 14.2649 8.05035 14.8325C8.0264 14.8889 8.03661 14.9338 8.10706 14.9852C8.38654 14.3267 8.66286 13.6758 8.93918 13.0249C8.96014 13.0584 8.96295 13.0864 8.96295 13.1144C8.96295 13.2697 8.96225 13.4251 8.96225 13.5804C8.96225 14.0842 8.96225 14.5881 8.96225 15.0918C8.96225 15.3762 8.96225 15.6608 8.96366 15.9452C8.96419 16.0362 8.99219 16.1173 9.05206 16.1829C9.06193 16.1808 9.07161 16.1787 9.08148 16.1766V12.9453C9.09046 12.9436 9.09962 12.942 9.1086 12.9402C10.0457 15.1351 10.9828 17.3298 11.9237 19.5336H6.18181C6.21774 19.4482 6.24786 19.3769 6.27797 19.3054C6.45972 18.8737 6.64129 18.4421 6.82321 18.0106C6.95723 17.6931 7.09107 17.3754 7.22721 17.0589C7.25556 16.9931 7.23901 16.9503 7.17314 16.908C7.15676 16.9425 7.14232 16.9703 7.12999 16.9992C7.05673 17.1713 6.984 17.3437 6.91109 17.5159C6.74924 17.8983 6.58722 18.2806 6.4259 18.6631C6.3146 18.9269 6.20348 19.1909 6.09358 19.4553C6.06981 19.5123 6.03934 19.5423 5.96995 19.5377V19.5375Z" fill="white"/>
<path d="M33.6538 16.4751C33.6418 16.0567 33.6287 15.6375 33.5925 15.2208C33.5587 14.8315 33.5067 14.4424 33.4401 14.0573C33.3517 13.5444 33.261 13.0304 33.1349 12.526C33.0118 12.0331 32.85 11.5493 32.6922 11.0657C32.5004 10.4778 32.2526 9.91216 31.98 9.35759C31.579 8.54167 31.1114 7.7659 30.5778 7.02888C30.2046 6.51322 29.8045 6.01994 29.3739 5.55236C28.7901 4.91854 28.1609 4.33245 27.4878 3.79284C26.98 3.38585 26.4589 2.99718 25.9051 2.65693C25.397 2.34469 24.8753 2.05358 24.3528 1.76599C23.828 1.47699 23.278 1.23836 22.7231 1.01417C22.3827 0.876628 22.037 0.746307 21.684 0.646628C21.207 0.512079 20.7228 0.399016 20.2373 0.297753C19.9011 0.227661 19.5579 0.191206 19.2171 0.143128C19.0179 0.115126 18.8184 0.0860679 18.6181 0.0716268C18.2575 0.0455624 17.8963 0.0212592 17.5349 0.0121014C17.1001 0.00118257 16.6644 -0.0065663 16.2299 0.00910755C15.8217 0.0239008 15.4136 0.060708 15.0075 0.106321C14.5274 0.160387 14.0477 0.223258 13.5713 0.303388C13.2003 0.365732 12.8333 0.454843 12.4669 0.542723C12.2421 0.596613 12.02 0.664239 11.8002 0.736797C11.5015 0.835419 11.2049 0.940557 10.9103 1.05027C10.6988 1.12899 10.4912 1.21899 10.2826 1.30581C10.1428 1.3641 9.99999 1.41729 9.86614 1.48738C9.64812 1.60168 9.416 1.68568 9.20326 1.81213C9.05691 1.89913 8.89489 1.95918 8.74696 2.04371C8.43877 2.21982 8.1355 2.40474 7.82942 2.58455C7.81393 2.59371 7.7905 2.58948 7.75598 2.593C7.75229 2.59829 7.73961 2.62787 7.71759 2.64566C7.67251 2.68194 7.62179 2.71117 7.57406 2.74428C7.30866 2.92849 7.04291 3.11218 6.77822 3.29762C6.63821 3.39554 6.49627 3.49134 6.36242 3.59718C6.19705 3.72804 6.03785 3.86699 5.87829 4.00488C5.66731 4.18716 5.45387 4.36661 5.25028 4.55681C5.0659 4.72922 4.88855 4.90956 4.71702 5.09483C4.42503 5.41042 4.12775 5.72249 3.85566 6.05481C3.58023 6.39118 3.32522 6.74499 3.07532 7.10108C2.84602 7.42794 2.62218 7.76026 2.42036 8.10456C2.22118 8.44428 2.0183 8.78347 1.85241 9.14185C1.64618 9.58776 1.43714 10.0324 1.23972 10.4822C1.11838 10.7585 1.00796 11.0405 0.908101 11.3253C0.788522 11.6664 0.673522 12.01 0.57807 12.3583C0.475749 12.7319 0.388222 13.1102 0.313023 13.4902C0.230603 13.9076 0.158926 14.328 0.103099 14.7496C0.0569583 15.097 0.0266673 15.4478 0.0146918 15.7981C-0.00274317 16.3009 -0.00115818 16.8046 0.000426816 17.3077C0.00113126 17.514 0.0108173 17.514 0.219332 17.5124C0.230956 17.5124 0.242755 17.5136 0.254378 17.5141C0.40689 17.5207 0.404424 17.5207 0.406009 17.3703C0.411293 16.8816 0.405481 16.3921 0.428904 15.9041C0.448804 15.4875 0.49882 15.0722 0.543552 14.6571C0.574195 14.373 0.610122 14.089 0.659609 13.8077C0.715612 13.4891 0.780949 13.1714 0.857909 12.8573C0.95072 12.4783 1.05198 12.1009 1.16505 11.7275C1.2494 11.4489 1.35542 11.1766 1.45739 10.9037C1.55443 10.6443 1.64442 10.3808 1.76277 10.1311C1.97973 9.67335 2.20199 9.21705 2.44678 8.77378C2.64807 8.40958 2.88142 8.06264 3.1079 7.71289C3.25636 7.48359 3.41186 7.25817 3.57512 7.03927C3.72675 6.83568 3.88948 6.6402 4.05326 6.44613C4.25984 6.20133 4.46589 5.95548 4.68426 5.72161C4.89665 5.49425 5.11961 5.27622 5.34662 5.06331C5.59088 4.83419 5.84395 4.6144 6.09544 4.39338C6.16254 4.33438 6.24073 4.28807 6.30994 4.23118C6.38109 4.17271 6.44449 4.10474 6.51634 4.04715C6.65001 3.9399 6.78456 3.83335 6.92351 3.73314C7.20159 3.5329 7.48055 3.3339 7.76391 3.14123C7.94178 3.02025 8.12564 2.90754 8.31109 2.79817C8.639 2.6048 8.96727 2.41196 9.30047 2.2281C9.51216 2.11134 9.73212 2.00937 9.95015 1.90459C10.174 1.79716 10.3975 1.68885 10.6257 1.59146C10.8576 1.49249 11.0945 1.40514 11.3301 1.31514C11.583 1.21864 11.8351 1.11931 12.0913 1.03213C12.2278 0.985817 12.3729 0.965564 12.5127 0.928405C12.6556 0.890365 12.7952 0.839821 12.9389 0.806184C13.0904 0.77061 13.245 0.748948 13.398 0.720594C13.6367 0.676215 13.8742 0.625847 14.1139 0.587807C14.3445 0.551176 14.5767 0.523703 14.8089 0.498519C15.0501 0.472455 15.2918 0.44956 15.5339 0.434062C15.756 0.419797 15.9786 0.414514 16.2012 0.409935C16.505 0.403595 16.8091 0.393557 17.1127 0.400249C17.425 0.407117 17.7371 0.430012 18.0489 0.449912C18.2444 0.462416 18.4401 0.476857 18.6345 0.500104C18.9478 0.537439 19.2615 0.574599 19.5725 0.626904C19.9923 0.697348 20.4115 0.774308 20.8278 0.86342C21.099 0.921537 21.3667 0.999554 21.6321 1.08144C21.9302 1.17337 22.23 1.2646 22.5181 1.38277C23.0073 1.58354 23.4904 1.7998 23.971 2.02029C24.2577 2.15185 24.5407 2.29379 24.8153 2.44912C25.174 2.65182 25.5243 2.8695 25.8753 3.08576C26.4869 3.46264 27.0616 3.89199 27.6015 4.36415C27.9913 4.70492 28.3676 5.06295 28.7285 5.43437C29.0585 5.77391 29.3697 6.13318 29.6708 6.49878C30.0357 6.94205 30.3605 7.41562 30.6687 7.9008C31.0035 8.42772 31.3118 8.96944 31.5788 9.53264C31.8039 10.0078 32.0084 10.4933 32.2058 10.9808C32.4266 11.5257 32.608 12.085 32.7521 12.6554C32.8436 13.0184 32.9319 13.3828 33.0036 13.7501C33.0692 14.086 33.1161 14.4257 33.1612 14.7651C33.1939 15.0114 33.2154 15.2598 33.2323 15.5079C33.2549 15.8379 33.276 16.1683 33.2827 16.4987C33.2888 16.8032 33.276 17.1082 33.2693 17.4129C33.2677 17.4837 33.2941 17.5154 33.3672 17.5103C33.4315 17.5059 33.4965 17.5045 33.5608 17.5083C33.631 17.5127 33.6541 17.4819 33.6539 17.4154C33.6532 17.1021 33.6626 16.7884 33.6536 16.4753L33.6538 16.4751Z" fill="white"/>
<path d="M13.2273 30.6491C13.1604 30.3942 13.1002 30.1373 13.0213 29.8863C12.9538 29.6722 12.8561 29.4686 12.6918 29.308C12.5364 29.156 12.329 29.1017 12.1323 29.0345C11.8834 28.9494 11.6291 28.8798 11.3764 28.8068C11.3195 28.7904 11.2593 28.7862 11.1899 28.7745C11.1728 29.3964 11.3049 29.9531 11.7337 30.4134C11.6349 30.4532 11.5453 30.4851 11.4592 30.5249C10.987 30.7431 10.5816 31.0427 10.2947 31.4861C10.2403 31.5703 10.2447 31.5865 10.3331 31.6446C10.561 31.794 10.8007 31.9134 11.0719 31.9628C11.2894 32.0025 11.5094 32.0171 11.7161 31.9371C11.9292 31.8547 12.1372 31.754 12.3364 31.6416C12.6684 31.4542 12.9603 31.2101 13.2395 30.952C13.261 30.9321 13.2759 30.8903 13.2726 30.8614C13.2641 30.7899 13.2455 30.7193 13.2271 30.6492L13.2273 30.6491Z" fill="white"/>
<path d="M22.6137 30.7505C22.4001 30.6237 22.1745 30.5172 21.9515 30.4001C22.0114 30.3229 22.0862 30.2407 22.1452 30.1482C22.399 29.75 22.4881 29.308 22.4853 28.8418C22.4849 28.7804 22.4568 28.7707 22.409 28.7827C22.353 28.7966 22.2986 28.8179 22.2424 28.8306C21.8731 28.913 21.514 29.0283 21.1685 29.1814C21.0838 29.2189 21.0063 29.2844 20.9413 29.3522C20.7807 29.5202 20.6962 29.7338 20.6247 29.9497C20.5667 30.1248 20.5243 30.305 20.4789 30.4841C20.4489 30.6019 20.4223 30.7209 20.4026 30.8409C20.3971 30.8745 20.4102 30.9236 20.4334 30.9474C20.5069 31.0224 20.5889 31.089 20.6682 31.1582C20.9753 31.4264 21.314 31.646 21.6771 31.8322C21.9531 31.9736 22.2444 32.0224 22.542 31.977C22.8467 31.9305 23.1226 31.7936 23.3771 31.617C23.4268 31.5825 23.4213 31.5492 23.3931 31.5076C23.1852 31.2019 22.9319 30.94 22.6135 30.7509L22.6137 30.7505Z" fill="white"/>
<path d="M3.26359 23.6443C3.64716 23.4507 4.00748 23.2257 4.28926 22.8956C4.4453 22.7128 4.55906 22.5075 4.53846 22.2537C4.52049 22.0329 4.50412 21.8119 4.47999 21.5917C4.47066 21.5058 4.44371 21.4214 4.42187 21.3371C4.40655 21.2777 4.38313 21.2351 4.3074 21.2772C4.07617 21.4057 3.83507 21.5183 3.61247 21.6602C3.38652 21.8041 3.20266 21.9955 3.1146 22.2798C3.0387 22.1193 2.92299 22.0105 2.78263 21.9381C2.54806 21.8171 2.30907 21.7037 2.06569 21.6017C1.93537 21.5472 1.79289 21.5207 1.65482 21.4864C1.59072 21.4705 1.52503 21.464 1.51693 21.563C1.51323 21.6084 1.49157 21.6523 1.48558 21.6979C1.45511 21.9281 1.44666 22.16 1.50319 22.3858C1.57628 22.6774 1.76031 22.9011 1.99049 23.0839C2.30132 23.3306 2.64773 23.5159 3.02813 23.6325C3.1028 23.6554 3.17712 23.6881 3.26377 23.6443H3.26359Z" fill="white"/>
<path d="M32.0343 21.488C31.9741 21.4963 31.9133 21.509 31.8557 21.5287C31.6777 21.5895 31.4984 21.6476 31.3248 21.7194C31.0277 21.8422 30.7348 21.9751 30.552 22.2768C30.4972 22.0935 30.3903 21.9515 30.26 21.8291C29.9965 21.5817 29.6799 21.4193 29.3518 21.2756C29.2991 21.2526 29.2708 21.2668 29.2576 21.313C29.2338 21.3964 29.2081 21.4808 29.1988 21.5666C29.1741 21.7922 29.1602 22.0188 29.1375 22.2446C29.1126 22.4901 29.2162 22.6901 29.3632 22.8693C29.6181 23.1796 29.9479 23.3937 30.297 23.5844C30.4271 23.6556 30.5386 23.6623 30.6818 23.6138C31.1258 23.4642 31.5213 23.2416 31.8554 22.9119C32.0776 22.6924 32.1854 22.4196 32.2002 22.1139C32.208 21.9549 32.1861 21.7939 32.1692 21.6345C32.1557 21.506 32.1238 21.4757 32.0341 21.488H32.0343Z" fill="white"/>
<path d="M9.09524 16.83C9.00243 16.5905 8.90099 16.3543 8.79902 16.1183C8.77137 16.0544 8.72911 15.9966 8.69353 15.936C8.68349 15.938 8.67346 15.9397 8.66324 15.9417C8.65267 16.0024 8.64211 16.063 8.63154 16.1238C8.60037 15.694 8.31912 15.4227 8.0303 15.1433C8.00846 15.2235 7.9912 15.286 7.97412 15.3487C7.96549 15.3469 7.95686 15.3452 7.94823 15.3436C7.94506 15.2916 7.95158 15.2367 7.93643 15.1884C7.91178 15.1097 7.89223 15.0151 7.83711 14.9625C7.51535 14.6568 7.14165 14.4305 6.72127 14.2852C6.62723 14.2528 6.52808 14.2357 6.43122 14.2115C6.42611 14.2198 6.421 14.2283 6.41589 14.2366C6.45658 14.3158 6.49902 14.3944 6.53759 14.4747C6.65259 14.7143 6.77269 14.9512 6.82993 15.2152C6.88488 15.469 6.95145 15.7205 7.02154 15.9705C7.03933 16.0339 7.07825 16.1016 7.12773 16.1433C7.20258 16.2067 7.29433 16.2502 7.3801 16.3002C7.46463 16.3497 7.5504 16.3967 7.63564 16.445C7.63405 16.4515 7.63247 16.458 7.63088 16.4645C7.4789 16.4381 7.32691 16.4117 7.16824 16.384C7.17211 16.408 7.17053 16.4265 7.17775 16.4404C7.31582 16.7012 7.4509 16.9638 7.59707 17.2202C7.62824 17.2748 7.69481 17.3171 7.75433 17.3456C7.83834 17.3861 7.93115 17.4087 8.02008 17.439C8.00564 17.4553 7.99455 17.459 7.98363 17.4592C7.93696 17.4603 7.88994 17.4589 7.84345 17.4615C7.82249 17.4627 7.80188 17.4714 7.7811 17.4765C7.79378 17.4967 7.80206 17.5226 7.81985 17.5362C8.06587 17.7239 8.34589 17.8257 8.6525 17.8519C8.72083 17.8577 8.76274 17.8815 8.78705 17.9421C8.87405 18.1587 8.96897 18.3727 9.04399 18.5934C9.08203 18.705 9.15019 18.7661 9.25849 18.8038C8.85978 17.7538 8.37231 16.7472 7.79907 15.7807C8.04298 16.1583 8.27809 16.541 8.49558 16.9332C8.6444 17.2014 8.76856 17.4832 8.90398 17.7588C8.926 17.8035 8.95699 17.8208 8.9857 17.7679C9.03853 17.6705 9.09207 17.5728 9.13363 17.4703C9.15829 17.4094 9.16058 17.3393 9.17431 17.2655C9.11426 17.2729 9.0771 17.2775 9.02585 17.2838C9.10704 17.1288 9.15441 16.9823 9.09542 16.8298L9.09524 16.83Z" fill="white"/>
<path d="M3.89924 25.5207C4.02287 25.5357 4.14175 25.5313 4.24143 25.4357C4.35308 25.3284 4.47389 25.2308 4.58484 25.1231C4.73982 24.9723 4.88599 24.8129 4.97845 24.6134C5.03621 24.4889 5.09204 24.361 5.07548 24.2208C5.05682 24.0622 5.03428 23.9024 4.995 23.7478C4.93882 23.5263 4.86697 23.3088 4.7997 23.0902C4.7805 23.0277 4.74035 23.0048 4.67976 23.0465C4.5188 23.1573 4.34938 23.2577 4.19898 23.3811C3.99874 23.5458 3.83637 23.7462 3.74426 23.9938C3.71151 24.0821 3.69002 24.1744 3.66114 24.2723C3.59827 24.217 3.54544 24.1622 3.48468 24.1182C3.07469 23.82 2.60518 23.7341 2.11102 23.7431C2.08777 23.7434 2.05026 23.7696 2.04427 23.791C1.99443 23.9672 2.00394 24.1499 2.04673 24.3214C2.1487 24.7309 2.3986 25.0276 2.7783 25.219C3.03031 25.3462 3.29289 25.4311 3.5715 25.4707C3.68087 25.4862 3.78953 25.5079 3.89924 25.5212V25.5207Z" fill="white"/>
<path d="M31.5375 23.7437C31.4038 23.754 31.2696 23.758 31.1368 23.7749C31.0076 23.7915 30.8772 23.8108 30.7524 23.8468C30.4718 23.9274 30.2159 24.0558 30.0117 24.2883C29.9703 24.1599 29.9431 24.0435 29.8959 23.9357C29.7732 23.6553 29.5643 23.4431 29.3231 23.2635C29.2114 23.1804 29.0881 23.1124 28.9666 23.0435C28.9488 23.0335 28.8928 23.0495 28.8874 23.065C28.8241 23.245 28.7592 23.4252 28.7109 23.6095C28.67 23.7659 28.6607 23.9308 28.6186 24.0866C28.5712 24.2622 28.6066 24.4214 28.6787 24.5771C28.8368 24.9189 29.1131 25.1597 29.3912 25.3985C29.4868 25.4807 29.587 25.5461 29.7221 25.5218C29.779 25.5115 29.8364 25.5033 29.8937 25.4945C30.0368 25.4726 30.1835 25.4638 30.3228 25.427C30.6303 25.3456 30.9248 25.2335 31.1772 25.0281C31.3908 24.8543 31.5306 24.6359 31.6023 24.3737C31.6519 24.1923 31.6555 24.0065 31.6315 23.8197C31.6238 23.7591 31.5935 23.7392 31.5375 23.7434V23.7437Z" fill="white"/>
<path d="M20.8649 25.7002C21.3163 25.7002 21.7676 25.6999 22.2188 25.7027C22.2877 25.703 22.315 25.6796 22.3115 25.6111C22.3081 25.544 22.3106 25.4764 22.3109 25.4091C22.3115 25.2855 22.3097 25.2844 22.1818 25.2844C21.274 25.2851 20.366 25.2855 19.4581 25.2857C18.5855 25.2858 17.7129 25.2857 16.8402 25.2857C16.8402 25.2842 16.8402 25.2828 16.8402 25.2813C16.4773 25.2813 16.1143 25.2813 15.7513 25.2813C15.163 25.2814 14.5747 25.2823 13.9864 25.2821C13.5274 25.2821 13.0685 25.2807 12.6095 25.2804C12.2201 25.28 11.8309 25.2816 11.4416 25.2797C11.3755 25.2793 11.3539 25.3063 11.3563 25.3681C11.3593 25.4442 11.3639 25.5211 11.3567 25.5967C11.3482 25.6856 11.3841 25.7032 11.4669 25.703C12.7944 25.7006 14.1218 25.7011 15.4493 25.7013C16.3167 25.7013 17.1838 25.702 18.0512 25.7018C18.989 25.7016 19.9269 25.7004 20.8647 25.7L20.8649 25.7002Z" fill="white"/>
<path d="M5.30493 27.1929C5.37538 27.1816 5.44283 27.1675 5.48668 27.1031C5.59252 26.9469 5.71193 26.7982 5.80227 26.6336C5.97486 26.3192 6.08229 25.9939 5.97116 25.6229C5.8588 25.2477 5.66279 24.9216 5.44336 24.6051C5.41553 24.565 5.37943 24.5583 5.34297 24.603C5.25263 24.7138 5.15225 24.8173 5.07071 24.9343C4.92348 25.1456 4.80865 25.3747 4.75388 25.6288C4.72535 25.7611 4.7044 25.8951 4.67957 26.0306C4.67763 26.0306 4.66724 26.0339 4.66107 26.03C4.46982 25.9127 4.25602 25.8798 4.03835 25.852C3.71923 25.8113 3.40171 25.8187 3.08347 25.8543C2.97059 25.8668 2.95967 25.8759 2.9882 25.9819C3.06921 26.2827 3.18932 26.5633 3.41051 26.7931C3.57817 26.9675 3.77119 27.0994 4.00471 27.16C4.16374 27.2013 4.32805 27.2235 4.49077 27.2505C4.76639 27.2961 5.03513 27.236 5.30493 27.1931V27.1929Z" fill="white"/>
<path d="M10.9667 30.135C10.975 29.8477 10.9515 29.5628 10.8786 29.2859C10.815 29.0445 10.7207 28.8076 10.5053 28.6588C10.3112 28.5248 10.1055 28.4052 9.89681 28.2946C9.73074 28.2066 9.55251 28.1418 9.35263 28.0549C9.27972 28.6525 9.27443 29.2086 9.68389 29.6928C9.65853 29.7024 9.6411 29.7118 9.62261 29.7158C9.34277 29.7759 9.07684 29.8734 8.83028 30.0194C8.62423 30.1415 8.44707 30.2947 8.32573 30.506C8.30142 30.5483 8.29614 30.5811 8.33823 30.6121C8.46961 30.7087 8.59394 30.8174 8.73377 30.8996C9.03809 31.0786 9.36901 31.139 9.70943 31.0305C10.1641 30.8856 10.5539 30.6274 10.8969 30.297C10.9443 30.2512 10.9647 30.2024 10.9667 30.135Z" fill="white"/>
<path d="M25.0339 30.1533C24.7702 29.9549 24.4742 29.8226 24.1533 29.7455C24.0964 29.7317 24.0409 29.7129 23.9686 29.6916C24.1917 29.4723 24.2873 29.209 24.3252 28.925C24.3625 28.6444 24.3643 28.3623 24.3132 28.0743C24.2713 28.0863 24.2422 28.0905 24.2165 28.1025C23.9904 28.2077 23.7613 28.3072 23.5404 28.4229C23.3969 28.4981 23.2572 28.5863 23.1315 28.6881C22.9151 28.8631 22.8281 29.1174 22.7691 29.377C22.7113 29.631 22.6949 29.8914 22.7117 30.1519C22.7145 30.1959 22.7368 30.247 22.7668 30.2798C22.976 30.5082 23.2264 30.6875 23.4985 30.8285C23.6896 30.9275 23.8951 31.0101 24.1036 31.0608C24.3303 31.1159 24.5621 31.073 24.7778 30.9779C24.9874 30.8854 25.1795 30.7648 25.3394 30.5984C25.3524 30.5848 25.3586 30.5496 25.3505 30.5327C25.2778 30.3795 25.1673 30.2544 25.0335 30.1537L25.0339 30.1533Z" fill="white"/>
<path d="M28.9889 26.0348C28.9647 25.91 28.9404 25.7821 28.9151 25.6544C28.8353 25.2517 28.6153 24.9253 28.3484 24.626C28.2855 24.5553 28.2635 24.5587 28.2085 24.6365C28.0248 24.8961 27.8633 25.1678 27.7496 25.4665C27.6381 25.7596 27.6189 26.0521 27.7358 26.3487C27.8329 26.5945 27.9676 26.8189 28.1249 27.0295C28.1673 27.0864 28.2226 27.16 28.2832 27.1723C28.4907 27.2148 28.7023 27.2442 28.9139 27.2585C29.1444 27.274 29.3728 27.238 29.5968 27.1792C29.8326 27.1174 30.0408 27.0047 30.216 26.8346C30.4104 26.6458 30.5376 26.4145 30.6248 26.1609C30.6568 26.0679 30.6735 25.9697 30.7003 25.8619C30.1019 25.8202 29.529 25.7708 28.9892 26.0347L28.9889 26.0348Z" fill="white"/>
<path d="M8.93898 29.5207C9.0052 29.2283 9.07071 28.9386 9.03144 28.6329C9.00449 28.4226 8.96011 28.2199 8.82944 28.0549C8.69964 27.8909 8.55453 27.7356 8.39673 27.5988C8.26641 27.4857 8.11179 27.3984 7.96051 27.3129C7.86294 27.2578 7.83705 27.2753 7.79444 27.376C7.71624 27.5614 7.65707 27.7493 7.63312 27.9531C7.61199 28.1324 7.62748 28.3018 7.67186 28.4714C7.70022 28.5795 7.74213 28.684 7.78088 28.7986C7.15744 28.7572 6.64144 29.0117 6.16101 29.3787C6.29151 29.5798 6.45987 29.722 6.64937 29.8403C7.0516 30.0916 7.49382 30.1119 7.94219 30.0356C8.2201 29.9882 8.48461 29.8845 8.73011 29.741C8.81975 29.6885 8.91239 29.6371 8.9388 29.5208L8.93898 29.5207Z" fill="white"/>
<path d="M27.4415 29.3268C27.3911 29.297 27.3434 29.263 27.2951 29.2303C26.9427 28.9911 26.5644 28.8219 26.1312 28.8032C26.0505 28.7997 25.9694 28.8027 25.8773 28.8027C26.0016 28.5193 26.0697 28.2499 26.0324 27.9547C26.0056 27.7435 25.9486 27.5461 25.8621 27.3542C25.8311 27.2851 25.788 27.2783 25.7207 27.3038C25.5171 27.3813 25.351 27.515 25.1931 27.6574C24.9012 27.9205 24.6758 28.2192 24.6364 28.6338C24.6089 28.9219 24.6575 29.1963 24.7223 29.4712C24.7376 29.5362 24.7623 29.6193 24.8111 29.6526C25.1555 29.888 25.5407 30.0266 25.9554 30.0627C26.1749 30.0819 26.3968 30.073 26.6148 30.0124C26.9631 29.9155 27.2354 29.7114 27.4649 29.4411C27.5038 29.3953 27.4939 29.3574 27.4415 29.3264V29.3268Z" fill="white"/>
<path d="M7.0321 28.3911C7.14622 28.133 7.26298 27.8786 7.31493 27.597C7.35244 27.3935 7.34963 27.2048 7.25963 27.0125C7.15203 26.7827 7.00005 26.5848 6.84525 26.3888C6.74609 26.2632 6.63127 26.1501 6.51204 26.0189C6.16563 26.5104 5.87945 27.0027 6.08251 27.6145C5.93616 27.5916 5.78823 27.5618 5.63906 27.547C5.43389 27.5266 5.22961 27.5506 5.03183 27.605C4.86488 27.6509 4.69951 27.7066 4.53943 27.7728C4.41738 27.8232 4.41457 27.8579 4.48466 27.9725C4.61199 28.181 4.76098 28.3703 4.96262 28.5141C5.12324 28.6285 5.29794 28.7222 5.48972 28.7518C5.91855 28.8178 6.34439 28.8023 6.7556 28.6384C6.87959 28.5889 6.97451 28.5218 7.03227 28.3911H7.0321Z" fill="white"/>
<path d="M29.0974 27.7528C29.0894 27.7491 29.0801 27.7488 29.0722 27.7452C28.836 27.642 28.5866 27.5788 28.333 27.5549C28.1263 27.5353 27.9121 27.5182 27.7089 27.601C27.6691 27.6172 27.6249 27.6223 27.5636 27.6371C27.6737 27.3964 27.6809 27.1678 27.6212 26.9369C27.5589 26.6956 27.4578 26.4702 27.3236 26.2603C27.2741 26.1828 27.2177 26.1095 27.1573 26.0239C26.9118 26.2816 26.7008 26.5375 26.515 26.8152C26.3326 27.0878 26.2852 27.3842 26.3733 27.6924C26.4383 27.9199 26.5386 28.1374 26.6265 28.3581C26.6727 28.4742 26.7355 28.5767 26.8692 28.6124C27.0534 28.6615 27.2339 28.7307 27.421 28.7603C27.7135 28.8066 28.0127 28.8061 28.2971 28.717C28.6875 28.5948 28.9725 28.3327 29.1731 27.9791C29.2499 27.8439 29.2382 27.8174 29.0975 27.7525L29.0974 27.7528Z" fill="white"/>
<path d="M26.7468 14.2829C26.6841 14.2305 26.5961 14.2335 26.5358 14.2921C26.4661 14.3601 26.3972 14.4358 26.3521 14.521C26.1396 14.9219 25.9355 15.3271 25.728 15.7306C25.5649 16.0477 25.4015 16.3649 25.2375 16.6817C25.138 16.8739 25.0375 17.0655 24.9373 17.2573C24.9105 17.3085 24.8783 17.3374 24.8209 17.2925C24.7709 17.2532 24.7318 17.2606 24.705 17.323C24.6805 17.3798 24.6469 17.3922 24.5882 17.354C24.5051 17.2995 24.4104 17.2629 24.3285 17.2069C24.2712 17.1678 24.2438 17.175 24.2124 17.2323C24.0435 17.5405 23.8732 17.8481 23.702 18.1549C23.6786 18.197 23.682 18.2238 23.7253 18.2477C24.1377 18.4756 24.5504 18.7033 24.9614 18.9335C25.0246 18.9689 25.0598 18.9564 25.0931 18.8953C25.259 18.5924 25.4267 18.2905 25.5949 17.9888C25.6208 17.9423 25.6109 17.9156 25.5644 17.8913C25.4735 17.8439 25.3867 17.7884 25.2948 17.7433C25.2314 17.7122 25.2185 17.6755 25.2604 17.6209C25.2918 17.5801 25.2898 17.5496 25.2442 17.5202C25.1423 17.4542 25.1426 17.4531 25.2057 17.3462C25.4808 16.8797 25.756 16.4132 26.0314 15.9467C26.2516 15.5737 26.4738 15.2019 26.691 14.827C26.7561 14.7146 26.8472 14.6109 26.8398 14.467C26.8477 14.4629 26.8555 14.4589 26.8634 14.4547C26.8255 14.3964 26.7979 14.3256 26.747 14.2828L26.7468 14.2829Z" fill="white"/>
<path d="M20.4936 24.7705C20.2096 24.775 19.9253 24.7743 19.6413 24.7745C18.722 24.7749 17.8027 24.7745 16.8835 24.7745C16.8835 24.7729 16.8835 24.7714 16.8835 24.7698C16.8222 24.7698 16.761 24.7698 16.6995 24.7698C16.0079 24.7701 15.3163 24.7708 14.6246 24.771C14.1649 24.771 13.7051 24.7719 13.2454 24.7694C13.1769 24.7691 13.1484 24.7923 13.151 24.8603C13.1537 24.9306 13.1563 25.0012 13.1516 25.0711C13.1463 25.1472 13.1725 25.1731 13.2513 25.1725C13.7349 25.1694 14.2185 25.1709 14.7021 25.1711C15.6367 25.1715 16.5713 25.1724 17.5059 25.1724C18.2649 25.1724 19.0238 25.1718 19.7828 25.1715C20.0202 25.1715 20.2578 25.1704 20.4952 25.1724C20.566 25.1729 20.5977 25.1447 20.5949 25.0734C20.5922 25.0061 20.5898 24.9383 20.5944 24.8712C20.5998 24.7944 20.5709 24.7691 20.4935 24.7703L20.4936 24.7705Z" fill="white"/>
<path d="M2.9854 21.6661C3.0009 21.6793 3.05303 21.6724 3.07081 21.6562C3.27316 21.472 3.4447 21.2637 3.56727 21.0164C3.68967 20.7697 3.73651 20.5073 3.7078 20.2375C3.68033 19.9784 3.59897 19.7299 3.46495 19.505C3.36439 19.3363 3.24728 19.1773 3.13615 19.0121C2.90633 19.1671 2.75839 19.3622 2.6286 19.5705C2.41005 19.921 2.3035 20.3016 2.38927 20.7135C2.46992 21.1008 2.68654 21.4118 2.98522 21.6661H2.9854Z" fill="white"/>
<path d="M30.652 21.6807C31.5574 20.9637 31.4963 19.7991 30.5553 19.0312C29.7063 19.9615 29.8016 21.0176 30.652 21.6807Z" fill="white"/>
<path d="M15.519 20.9111C15.5049 20.5602 15.5 20.2091 15.4848 19.8584C15.4699 19.5134 15.4456 19.1686 15.4285 18.8238C15.4077 18.4032 15.3883 17.9825 15.3718 17.5616C15.3593 17.2399 15.3552 16.9177 15.3417 16.596C15.326 16.2218 15.3026 15.8481 15.2858 15.474C15.2737 15.1993 15.2689 14.924 15.2573 14.6493C15.2393 14.2197 15.22 13.7902 15.1981 13.3607C15.1907 13.2141 15.2078 13.1904 15.0488 13.1513C14.9732 13.1328 14.968 13.1539 14.9708 13.2127C14.9863 13.5281 15.0011 13.8437 15.0164 14.1592C15.0349 14.536 15.0542 14.9131 15.0722 15.29C15.0911 15.6873 15.1081 16.0846 15.1263 16.4821C15.1465 16.9232 15.168 17.3644 15.1876 17.8055C15.1976 18.0336 15.2046 18.262 15.2127 18.4901C15.2244 18.8169 15.233 19.1441 15.2483 19.4708C15.2622 19.7686 15.2857 20.0661 15.3005 20.3639C15.3209 20.7758 15.3388 21.1877 15.3549 21.5998C15.3679 21.9334 15.3753 22.2673 15.3878 22.6008C15.3917 22.7046 15.4037 22.8079 15.413 22.9252C15.4766 22.8993 15.5225 22.8877 15.5599 22.8631C15.5829 22.8479 15.6072 22.8125 15.6065 22.7872C15.6002 22.5885 15.5872 22.39 15.5776 22.1916C15.5574 21.7648 15.5359 21.3381 15.5188 20.9112L15.519 20.9111Z" fill="white"/>
<path d="M18.2871 22.834C18.3047 22.4775 18.3247 22.1211 18.3418 21.7646C18.3614 21.3559 18.3786 20.9469 18.3966 20.538C18.416 20.0939 18.4348 19.6497 18.454 19.2054C18.4642 18.9717 18.4755 18.738 18.4848 18.5041C18.4957 18.2322 18.5038 17.9601 18.5158 17.6882C18.5331 17.2965 18.5544 16.905 18.5711 16.5132C18.5842 16.2064 18.5907 15.8993 18.6044 15.5923C18.6203 15.2388 18.6437 14.8857 18.6586 14.5323C18.672 14.2164 18.6771 13.9001 18.6882 13.5841C18.6903 13.5232 18.7073 13.4629 18.7106 13.402C18.7146 13.3272 18.7115 13.2521 18.7115 13.1648C18.6645 13.1768 18.637 13.1863 18.6086 13.1903C18.5348 13.2011 18.503 13.2337 18.5 13.3168C18.4885 13.6234 18.4646 13.9296 18.4496 14.2363C18.4281 14.6776 18.4109 15.1191 18.391 15.5604C18.3721 15.978 18.3503 16.3954 18.3328 16.8131C18.321 17.094 18.3145 17.3752 18.3061 17.6563C18.3031 17.7556 18.3043 17.8553 18.299 17.9545C18.2844 18.2259 18.2649 18.4971 18.252 18.7685C18.2443 18.9322 18.2492 19.0967 18.2411 19.2607C18.2284 19.5204 18.2059 19.7799 18.1944 20.0396C18.1798 20.3698 18.1758 20.7006 18.1606 21.0308C18.1462 21.3464 18.1213 21.6614 18.1053 21.9768C18.0933 22.2137 18.0873 22.4508 18.0796 22.6878C18.0747 22.8345 18.0761 22.8327 18.2154 22.8819C18.2675 22.9002 18.2844 22.8861 18.2869 22.8338L18.2871 22.834Z" fill="white"/>
<path d="M17.6449 23.0735C17.4397 23.0753 17.2347 23.0732 17.0295 23.0726C16.7189 23.0719 16.4084 23.0714 16.0977 23.0714C15.9915 23.0714 15.9797 23.0837 15.9797 23.1938C15.9801 23.4692 15.9815 23.7447 15.982 24.0201C15.9822 24.1265 15.9892 24.136 16.0942 24.1365C16.346 24.1376 16.5979 24.1369 16.8497 24.1369V24.1381C17.1075 24.1381 17.3654 24.1372 17.6234 24.1386C17.6894 24.139 17.7276 24.1219 17.7268 24.0449C17.7234 23.7461 17.7229 23.4472 17.7239 23.1484C17.7241 23.0894 17.7009 23.073 17.6449 23.0735Z" fill="white"/>
<path d="M15.0912 24.2401C15.0121 24.2383 14.9772 24.2653 14.9843 24.3468C14.989 24.4021 14.9857 24.4581 14.9852 24.5139C14.9838 24.6641 14.9836 24.6634 15.138 24.6633C15.7004 24.6629 16.2627 24.6633 16.825 24.6633V24.6643C17.1325 24.6643 17.44 24.6645 17.7476 24.6643C18.0231 24.6641 18.2985 24.6626 18.5738 24.6636C18.6381 24.6638 18.6719 24.6469 18.6675 24.5736C18.6629 24.4951 18.6696 24.4158 18.6706 24.3369C18.6715 24.2737 18.6476 24.2411 18.5764 24.2429C18.4216 24.2464 18.2665 24.2425 18.1117 24.2425C17.3038 24.2431 16.4962 24.2439 15.6884 24.2443C15.4892 24.2443 15.29 24.2448 15.091 24.2404L15.0912 24.2401Z" fill="white"/>
<path d="M15.913 29.8573C15.892 29.3135 15.8751 28.7695 15.8525 28.2258C15.8367 27.84 15.8143 27.4543 15.7948 27.0684C15.796 27.0684 15.7972 27.0684 15.7983 27.0684C15.789 26.8224 15.7784 26.5765 15.7705 26.3305C15.7654 26.1713 15.7666 26.1733 15.6162 26.128C15.5572 26.1102 15.5498 26.1357 15.5525 26.1835C15.5634 26.3793 15.5745 26.575 15.5834 26.7708C15.6034 27.2035 15.6218 27.6362 15.6409 28.0689C15.6592 28.487 15.6782 28.9049 15.6956 29.323C15.7097 29.6624 15.7242 30.0017 15.7333 30.3413C15.7354 30.4177 15.7682 30.436 15.8349 30.4371C15.9052 30.4383 15.9475 30.4217 15.9411 30.3391C15.929 30.1787 15.9188 30.0183 15.9126 29.8575L15.913 29.8573Z" fill="white"/>
<path d="M18.11 26.147C18.0517 26.122 17.9318 26.203 17.9286 26.2659C17.9103 26.6251 17.8925 26.9846 17.8745 27.3438C17.8782 27.344 17.8819 27.3442 17.8856 27.3444C17.8645 27.686 17.839 28.0275 17.8235 28.3693C17.8078 28.7175 17.8021 29.066 17.7918 29.4144C17.7903 29.4642 17.7863 29.5139 17.7844 29.5635C17.7736 29.8325 17.7622 30.1014 17.7548 30.3705C17.7542 30.3913 17.7791 30.4259 17.7986 30.4318C17.9024 30.4624 17.9471 30.4311 17.952 30.3229C17.9709 29.9106 17.9867 29.4984 18.0045 29.0861C18.021 28.7002 18.0394 28.3144 18.0557 27.9285C18.0674 27.6563 18.0744 27.3838 18.088 27.1117C18.1029 26.8107 18.1235 26.51 18.1394 26.209C18.1405 26.1882 18.1262 26.154 18.1102 26.147H18.11Z" fill="white"/>
<path d="M16.8841 27.7938C16.8837 27.3278 16.8835 26.8618 16.8816 26.3958C16.8816 26.3706 16.8724 26.3312 16.8554 26.3226C16.7573 26.2733 16.6757 26.3266 16.6759 26.4349C16.6759 26.4555 16.6763 26.476 16.6763 26.4964C16.6763 27.3371 16.6759 28.1779 16.6759 29.0186C16.6759 29.4642 16.6757 29.9096 16.6773 30.3551C16.6773 30.3814 16.6838 30.42 16.7014 30.4314C16.7844 30.4856 16.8841 30.4305 16.8841 30.3349C16.8841 29.6813 16.8841 29.0276 16.8841 28.3741C16.8841 28.3741 16.8842 28.3741 16.8844 28.3741C16.8844 28.1805 16.8844 27.9872 16.8844 27.7936L16.8841 27.7938Z" fill="white"/>
<path d="M9.68324 18.8805C9.46962 18.8802 9.25582 18.8805 9.0422 18.8805V18.8793C8.81959 18.8793 8.59699 18.8819 8.37439 18.8779C8.3013 18.8765 8.27348 18.9009 8.27576 18.9733C8.27911 19.0725 8.27682 19.172 8.27576 19.2713C8.27524 19.3366 8.30183 19.365 8.37139 19.3641C8.58202 19.3615 8.79265 19.3645 9.00345 19.3648C9.23715 19.3652 9.47103 19.3652 9.70473 19.3653C9.76918 19.3653 9.80986 19.3476 9.80423 19.2685C9.79789 19.1781 9.80352 19.0871 9.80335 18.9962C9.80299 18.883 9.80088 18.8807 9.68324 18.8805Z" fill="white"/>
<path d="M14.967 8.04037C14.9663 7.98384 14.9702 7.92555 14.8832 7.92924C14.7485 7.93506 14.7416 7.93594 14.7451 8.0372C14.7582 8.41108 14.771 8.78497 14.7879 9.1585C14.8094 9.63452 14.8358 10.1102 14.858 10.586C14.8665 10.7671 14.8663 10.9487 14.8756 11.1297C14.877 11.1586 14.9054 11.2082 14.9249 11.2102C15.0227 11.2193 15.0861 11.1537 15.0882 11.0542C15.0886 11.0365 15.0893 11.0189 15.0886 11.0015C15.0699 10.5577 15.0509 10.1139 15.0325 9.6701C15.0267 9.52991 15.0241 9.38955 15.0174 9.24937C15.0024 8.93713 14.9857 8.62506 14.9674 8.26984C14.9674 8.22194 14.9681 8.13107 14.967 8.04037Z" fill="white"/>
<path d="M18.8216 7.89606C18.7584 7.88972 18.7314 7.91174 18.7298 7.97831C18.7272 8.09507 18.7156 8.21183 18.7099 8.32859C18.6886 8.76992 18.6668 9.21125 18.6481 9.65259C18.6409 9.82535 18.646 9.99847 18.6383 10.1712C18.6258 10.4516 18.606 10.7316 18.5923 11.0118C18.5868 11.124 18.6251 11.1624 18.7364 11.173C18.7792 11.177 18.8008 11.1638 18.8035 11.1162C18.8202 10.807 18.8426 10.4981 18.8561 10.1888C18.8716 9.83521 18.878 9.48106 18.8922 9.12743C18.906 8.78859 18.925 8.44993 18.9419 8.11109C18.9435 8.11109 18.9451 8.11109 18.9466 8.11109C18.9466 8.06724 18.9445 8.02304 18.947 7.97936C18.9532 7.87722 18.8794 7.9017 18.8214 7.89589L18.8216 7.89606Z" fill="white"/>
<path d="M16.8643 31.0066C16.6003 30.9897 16.3388 31.233 16.3455 31.4977C16.3525 31.7709 16.5402 31.9933 16.8414 31.9998C17.1052 32.0055 17.3253 31.7996 17.3407 31.5118C17.3449 31.2767 17.1565 31.0252 16.8641 31.0066H16.8643ZM16.8407 31.7536C16.7081 31.7524 16.607 31.6559 16.6075 31.5309C16.608 31.4032 16.7091 31.3012 16.8349 31.3017C16.9717 31.3023 17.0582 31.3944 17.0569 31.5382C17.0559 31.6606 16.9611 31.7549 16.8407 31.7538V31.7536Z" fill="white"/>
<path d="M16.5992 6.2333C16.5193 6.25637 16.4333 6.25795 16.3504 6.27134C16.3301 6.27468 16.3118 6.28948 16.2926 6.29916C16.3023 6.31572 16.309 6.33491 16.3218 6.3483C16.3828 6.41152 16.4472 6.4714 16.506 6.53656C16.5251 6.55769 16.5422 6.59256 16.5397 6.61916C16.5325 6.69347 16.5115 6.76638 16.502 6.8407C16.496 6.88737 16.5009 6.93527 16.5009 7.00008C16.5851 6.95535 16.6549 6.92911 16.7116 6.88579C16.8093 6.81129 16.8938 6.82415 16.9884 6.89142C17.0471 6.93316 17.1179 6.95799 17.1932 6.99533C17.1978 6.95887 17.2031 6.94426 17.2008 6.93105C17.1858 6.84845 17.161 6.76674 17.1561 6.68361C17.1533 6.6343 17.1688 6.5739 17.198 6.5348C17.2464 6.46981 17.3135 6.41909 17.37 6.35974C17.3843 6.34478 17.3984 6.31783 17.3944 6.30075C17.391 6.28701 17.3612 6.27504 17.3413 6.27063C17.2848 6.25813 17.2267 6.23858 17.1703 6.2421C17.0545 6.24968 17.0032 6.18997 16.9671 6.091C16.9391 6.01422 16.8951 5.94324 16.8581 5.86963C16.8482 5.87121 16.8385 5.87297 16.8287 5.87456C16.7864 5.9635 16.7487 6.05507 16.6999 6.14049C16.6779 6.17888 16.639 6.22167 16.5994 6.23312L16.5992 6.2333Z" fill="white"/>
<path d="M14.4865 6.7609C14.403 6.76672 14.3203 6.7845 14.2375 6.79982C14.1709 6.81215 14.1584 6.84103 14.2114 6.89158C14.275 6.95198 14.3379 7.01327 14.3953 7.07931C14.414 7.1008 14.424 7.13901 14.4214 7.16807C14.4111 7.2792 14.3941 7.38962 14.3772 7.51976C14.4184 7.5062 14.4399 7.50233 14.4583 7.49264C14.5228 7.45848 14.5883 7.42555 14.6494 7.38592C14.7044 7.35035 14.7533 7.34718 14.8095 7.38222C14.8736 7.4222 14.9405 7.45777 15.0078 7.49229C15.0263 7.5018 15.0503 7.50039 15.0717 7.50409C15.0747 7.47961 15.0832 7.45443 15.0798 7.43083C15.0675 7.34735 15.0457 7.26493 15.039 7.18128C15.0362 7.14588 15.0527 7.10115 15.0756 7.07297C15.1411 6.99231 15.2144 6.91782 15.306 6.81744C15.2202 6.80211 15.1591 6.78574 15.0969 6.78098C14.9798 6.772 14.8819 6.74365 14.8453 6.61262C14.8306 6.55996 14.8019 6.51083 14.7768 6.46152C14.7674 6.4432 14.7498 6.42911 14.7359 6.41309C14.7188 6.43017 14.6961 6.44443 14.6857 6.46504C14.6505 6.53531 14.6202 6.60786 14.5869 6.67901C14.5668 6.72181 14.545 6.7565 14.4865 6.76055V6.7609Z" fill="white"/>
<path d="M18.7074 6.76124C18.6053 6.77111 18.5049 6.79752 18.376 6.82218C18.4693 6.91693 18.5452 6.98825 18.6132 7.06627C18.6352 7.09145 18.6479 7.13495 18.6456 7.16894C18.6386 7.28024 18.6227 7.39119 18.609 7.51236C18.6408 7.50654 18.662 7.50742 18.6782 7.4988C18.7426 7.46498 18.8089 7.43258 18.8684 7.39119C18.9313 7.34734 18.9837 7.34065 19.0492 7.3889C19.1098 7.43363 19.1794 7.46639 19.2468 7.50108C19.2844 7.52028 19.321 7.5187 19.3125 7.46181C19.3002 7.37851 19.2833 7.29574 19.2662 7.21332C19.2527 7.14798 19.2648 7.0918 19.3152 7.04619C19.3846 6.9835 19.454 6.9208 19.5233 6.85811C19.5193 6.84402 19.5152 6.82993 19.511 6.81566C19.4503 6.80457 19.39 6.78872 19.3287 6.78361C19.2137 6.77428 19.1156 6.74839 19.0767 6.62C19.06 6.5647 19.0292 6.51328 19.0019 6.46168C18.9924 6.44354 18.9742 6.42998 18.96 6.41431C18.9443 6.42998 18.9235 6.44319 18.9142 6.46203C18.8804 6.52984 18.8501 6.59958 18.8187 6.66879C18.7965 6.71775 18.7728 6.75508 18.7069 6.76142L18.7074 6.76124Z" fill="white"/>
<path d="M24.1339 17.0526C24.1292 16.9728 24.0788 16.9136 23.9989 16.8995C23.914 16.8848 23.843 16.92 23.7997 16.9969C23.725 17.1292 23.6526 17.2629 23.579 17.3958C23.4742 17.5851 23.3652 17.7722 23.2657 17.9643C23.2058 18.0797 23.2934 18.2105 23.4214 18.211C23.5038 18.2107 23.5589 18.1663 23.5968 18.0985C23.7648 17.7972 23.933 17.4959 24.0978 17.1926C24.1204 17.151 24.1368 17.0987 24.1341 17.0526H24.1339Z" fill="white"/>
<path d="M25.7014 18.0355C25.6277 18.1584 25.561 18.2854 25.4913 18.4108C25.3859 18.5999 25.2803 18.7891 25.1751 18.9784C25.1168 19.0833 25.1387 19.1802 25.2327 19.2373C25.3229 19.2919 25.4141 19.2649 25.4795 19.1642C25.489 19.1494 25.499 19.1349 25.5075 19.1195C25.6698 18.825 25.8326 18.5307 25.9934 18.2354C26.0125 18.2002 26.0212 18.1595 26.028 18.1401C26.0277 18.0365 25.9761 17.9673 25.8924 17.945C25.8047 17.9215 25.7427 17.9666 25.7014 18.0357V18.0355Z" fill="white"/>
<path d="M16.885 3.64018C16.8847 3.61112 16.8588 3.56322 16.8356 3.55671C16.7035 3.51972 16.6691 3.55037 16.6693 3.68667C16.6697 3.98536 16.6693 4.28422 16.6693 4.5829C16.67 4.5829 16.6705 4.5829 16.6712 4.5829C16.6712 4.88757 16.6739 5.19207 16.6695 5.49674C16.6683 5.57881 16.6956 5.60434 16.7752 5.60188C16.8512 5.59959 16.8919 5.5862 16.89 5.49445C16.884 5.22799 16.8877 4.96136 16.8877 4.69491C16.8877 4.34339 16.8886 3.9917 16.885 3.64018Z" fill="white"/>
<path d="M13.3969 9.8041C13.415 9.73155 13.4134 9.67061 13.4154 9.60968C13.4173 9.54892 13.3891 9.52744 13.3298 9.52796C13.1424 9.52972 12.9548 9.52761 12.7674 9.52849C12.7424 9.52849 12.7174 9.53624 12.672 9.54381C12.7953 9.60528 12.7969 9.60528 12.7981 9.72908C12.7995 9.86962 12.7999 10.0103 12.797 10.1509C12.7951 10.2417 12.831 10.3518 12.6817 10.3847C12.7166 10.3985 12.7382 10.4036 12.7599 10.4036C12.9092 10.4036 13.0586 10.4032 13.2077 10.4011C13.2775 10.4001 13.3671 10.4193 13.4113 10.3839C13.4534 10.3502 13.4495 10.2576 13.4626 10.1903C13.4668 10.1687 13.4608 10.1451 13.4596 10.1223C13.4437 10.138 13.4226 10.1512 13.4127 10.1701C13.3389 10.3115 13.2264 10.3645 13.0709 10.3242C13.0545 10.3199 13.0325 10.2951 13.032 10.2789C13.0283 10.1866 13.0302 10.094 13.0302 9.99501C13.061 9.99959 13.0903 9.99571 13.098 10.0066C13.1369 10.0614 13.1702 10.1202 13.2186 10.1993V9.73401L13.195 9.72979C13.1818 9.7606 13.1713 9.79283 13.1547 9.82172C13.1355 9.855 13.1133 9.88776 13.0864 9.91488C13.0811 9.92016 13.0313 9.8985 13.0307 9.88776C13.0262 9.79565 13.0281 9.70302 13.0281 9.61443C13.2091 9.57551 13.3449 9.59823 13.3969 9.80428V9.8041Z" fill="white"/>
<path d="M10.8089 10.3733C10.8149 10.3794 10.8211 10.3856 10.8271 10.3918H11.0986C11.0645 10.3468 11.0102 10.3083 11.0076 10.2665C10.9974 10.101 11.0034 9.93457 11.0034 9.74331C11.0409 9.78505 11.0613 9.80566 11.0793 9.8282C11.2209 10.0059 11.3616 10.1845 11.5044 10.3611C11.5211 10.3817 11.5498 10.3926 11.5731 10.4081C11.5826 10.3801 11.6 10.3523 11.6006 10.3241C11.6034 10.1367 11.6039 9.94919 11.6025 9.7618C11.6018 9.67921 11.5826 9.59239 11.677 9.54008H11.413C11.459 9.58129 11.5153 9.60753 11.5178 9.63817C11.5282 9.76286 11.5222 9.88878 11.5222 10.0305C11.3975 9.8768 11.2859 9.73961 11.1746 9.60189C11.1106 9.52264 10.9106 9.49482 10.8114 9.55787C10.9157 9.58798 10.9338 9.66265 10.9299 9.75546C10.9247 9.88402 10.9269 10.0131 10.9275 10.1419C10.928 10.2364 10.9525 10.3398 10.8086 10.3733H10.8089Z" fill="white"/>
<path d="M21.663 10.3747C21.7355 10.4038 21.8342 10.4078 21.9088 10.3844C22.0696 10.334 22.1707 10.1348 22.0122 9.98145C21.9936 9.96331 21.9768 9.94323 21.9471 9.91083C21.9772 9.88494 22.0027 9.86522 22.0256 9.84303C22.0959 9.77505 22.0828 9.67185 22.0344 9.61514C21.9545 9.52127 21.781 9.4945 21.6644 9.56055C21.5226 9.64103 21.4983 9.8027 21.6121 9.91911C21.6297 9.93725 21.6558 9.94711 21.6824 9.96349C21.651 9.9892 21.6403 9.99889 21.6286 10.0073C21.4812 10.1139 21.4936 10.3071 21.663 10.3749V10.3747ZM21.782 9.60951C21.822 9.58203 21.8666 9.60211 21.8868 9.65036C21.9148 9.71746 21.9175 9.78297 21.8513 9.86539C21.8072 9.80428 21.7639 9.76026 21.7429 9.70742C21.7331 9.68259 21.7569 9.62694 21.7822 9.60951H21.782ZM21.7299 10.0345L21.7819 10.0253C21.8197 10.0843 21.8646 10.1405 21.8921 10.2041C21.9029 10.2289 21.8833 10.2794 21.8611 10.3018C21.8421 10.321 21.7937 10.33 21.769 10.3191C21.7449 10.3085 21.722 10.2676 21.7204 10.2389C21.7167 10.1711 21.726 10.1026 21.7301 10.0345H21.7299Z" fill="white"/>
<path d="M10.0073 10.3375C9.91906 10.3852 9.77623 10.3294 9.71917 10.2215C9.69522 10.1762 9.67849 10.1271 9.65859 10.0797C9.64908 10.0814 9.63939 10.0832 9.62988 10.085V10.4007C9.67461 10.3939 9.72023 10.3775 9.76337 10.3826C9.81075 10.3882 9.85548 10.4145 9.90197 10.43C9.91536 10.4344 9.93103 10.4344 9.94547 10.4335C10.083 10.4256 10.2026 10.3299 10.2329 10.2044C10.2634 10.0781 10.2103 9.9749 10.0735 9.89688C10.0025 9.85637 9.92733 9.82256 9.86024 9.77642C9.80987 9.7419 9.75721 9.69189 9.80775 9.62338C9.85073 9.56509 9.91536 9.56051 9.98105 9.58763C10.0594 9.62003 10.1094 9.67498 10.1267 9.76057C10.13 9.77695 10.1552 9.78892 10.1704 9.80284C10.1793 9.78963 10.1959 9.7766 10.1963 9.76321C10.1987 9.68308 10.1975 9.6026 10.1975 9.54536C10.1103 9.53391 10.0392 9.5348 9.97524 9.51419C9.85178 9.47421 9.67144 9.56315 9.6408 9.68889C9.60664 9.8289 9.65577 9.93122 9.80388 10.02C9.87362 10.0619 9.94864 10.0954 10.0163 10.1401C10.0978 10.194 10.0911 10.2922 10.0073 10.3375Z" fill="white"/>
<path d="M14.8186 4.79547C14.8151 4.76835 14.7943 4.72784 14.7728 4.72133C14.647 4.68276 14.5856 4.73894 14.6051 4.86697C14.6069 4.87859 14.609 4.89004 14.6094 4.90166C14.621 5.24666 14.6342 5.59149 14.6426 5.93667C14.6444 6.01098 14.6595 6.05431 14.7455 6.0499C14.8526 6.04427 14.8647 6.0381 14.8619 5.93508C14.8536 5.63692 14.8431 5.33877 14.8335 5.04061C14.8344 5.04061 14.8353 5.04044 14.8362 5.04026C14.8309 4.95855 14.8291 4.87648 14.8186 4.79547Z" fill="white"/>
<path d="M18.9954 4.6932C18.9403 4.69532 18.8737 4.67612 18.8707 4.77052C18.8637 4.99823 18.8535 5.22594 18.8429 5.45365C18.8357 5.6081 18.8264 5.76237 18.8156 5.91664C18.811 5.98339 18.8433 6.00558 18.9037 6.00259C18.9241 6.00153 18.9451 5.99783 18.9646 6.00135C19.0155 6.01069 19.031 5.98991 19.0335 5.94042C19.038 5.84162 19.0525 5.74318 19.0564 5.6442C19.0659 5.40821 19.0717 5.17222 19.0791 4.93606C19.0826 4.93606 19.0863 4.93606 19.0898 4.93624C19.0898 4.88358 19.0845 4.83039 19.0911 4.77844C19.1009 4.69849 19.053 4.69091 18.9954 4.6932Z" fill="white"/>
<path d="M20.8915 10.3809C20.9248 10.3922 20.9348 10.3985 20.9447 10.3983C21.2821 10.3904 21.5227 10.1077 21.4533 9.75447C21.4406 9.68948 21.3879 9.6208 21.3346 9.57765C21.208 9.47516 20.9945 9.51989 20.92 9.71854C20.8499 9.90575 20.9582 10.0848 21.1527 10.0829C21.172 10.0827 21.1916 10.0889 21.2152 10.0928C21.193 10.2749 21.0336 10.3075 20.8917 10.3809H20.8915ZM21.2146 9.98376C21.1898 9.98183 21.1465 9.96791 21.1449 9.95453C21.1319 9.8464 21.1261 9.73738 21.1208 9.62855C21.1204 9.62062 21.1435 9.60266 21.1504 9.60495C21.1733 9.6127 21.2072 9.62326 21.2129 9.64052C21.233 9.70304 21.2432 9.76873 21.2573 9.83319C21.2534 9.83407 21.2495 9.83495 21.2458 9.83583C21.2458 9.86806 21.2495 9.90064 21.2444 9.93199C21.2412 9.95136 21.2238 9.98429 21.2148 9.98359L21.2146 9.98376Z" fill="white"/>
<path d="M12.5306 9.53661C12.5005 9.54929 12.46 9.54401 12.4255 9.5389C12.3513 9.52798 12.2754 9.49258 12.205 9.50209C12.0806 9.519 11.9688 9.57324 11.8792 9.67186C11.7159 9.85132 11.7163 10.1042 11.88 10.2807C12.0063 10.4168 12.2701 10.4755 12.4494 10.3752C12.5043 10.3444 12.5841 10.3198 12.5635 10.205C12.5309 10.2345 12.5135 10.253 12.4933 10.2682C12.3307 10.3902 12.1336 10.4168 12.0433 10.1865C12.0105 10.1032 12.0063 10.003 12.0121 9.91208C12.0172 9.83353 12.0429 9.75059 12.0813 9.68173C12.1303 9.59385 12.221 9.55017 12.3215 9.57588C12.4249 9.6023 12.4985 9.67134 12.5285 9.78C12.5334 9.79796 12.5535 9.81152 12.5667 9.82719C12.5759 9.8087 12.5922 9.79056 12.5931 9.77189C12.5959 9.70779 12.5887 9.64316 12.594 9.57941C12.5991 9.51777 12.5829 9.51477 12.5306 9.53696V9.53661Z" fill="white"/>
<path d="M16.784 8.74388C16.8457 8.74617 16.8915 8.74388 16.889 8.65882C16.8837 8.48077 16.8874 8.30237 16.8874 8.12415C16.8871 8.12415 16.8865 8.12415 16.8862 8.12415C16.8862 7.93976 16.8825 7.75537 16.8876 7.57134C16.8902 7.47412 16.8291 7.49279 16.7714 7.48927C16.7094 7.4854 16.6706 7.49438 16.6712 7.57099C16.6731 7.9336 16.674 8.29638 16.6696 8.659C16.6685 8.75357 16.7252 8.74159 16.784 8.74388Z" fill="white"/>
<path d="M22.6312 9.79462C22.6312 9.73298 22.6351 9.67099 22.6294 9.61006C22.627 9.58329 22.6053 9.53662 22.5921 9.53662C22.56 9.53662 22.519 9.55001 22.4979 9.57308C22.4487 9.62644 22.4086 9.68808 22.3656 9.74725C22.2938 9.84622 22.2177 9.94273 22.1527 10.0459C22.0927 10.141 22.1296 10.2007 22.2381 10.2002C22.2733 10.2 22.3089 10.2039 22.3436 10.2002C22.4137 10.1926 22.4406 10.221 22.4317 10.2904C22.4218 10.3668 22.4574 10.3911 22.5338 10.3925C22.6183 10.3941 22.6301 10.3532 22.6321 10.2847C22.633 10.2541 22.652 10.2199 22.6719 10.1949C22.7112 10.1458 22.708 10.103 22.6729 10.0539C22.6536 10.0266 22.6347 9.99398 22.6307 9.96193C22.6238 9.90698 22.6287 9.85063 22.6287 9.79498H22.6308L22.6312 9.79462ZM22.4271 10.0385H22.2457C22.3061 9.95471 22.361 9.87845 22.4271 9.78687V10.0385Z" fill="white"/>
<path d="M10.2916 10.3678C10.2988 10.3754 10.3059 10.3831 10.3131 10.3907H10.7587C10.761 10.383 10.7631 10.3752 10.7654 10.3675C10.6794 10.3606 10.6461 10.3153 10.6481 10.235C10.6519 10.0684 10.6518 9.90165 10.6523 9.73487C10.6525 9.65298 10.6331 9.56105 10.7805 9.56404C10.7729 9.55594 10.7654 9.54802 10.7578 9.53992H10.3156C10.3122 9.54749 10.3087 9.55524 10.3054 9.56281C10.4156 9.56809 10.4181 9.63519 10.4154 9.71568C10.4103 9.87048 10.4149 10.0255 10.4142 10.1803C10.4138 10.2625 10.4514 10.3657 10.2918 10.3676L10.2916 10.3678Z" fill="white"/>
<path d="M20.6871 9.6163C20.6871 9.52754 20.6653 9.51362 20.581 9.55026C20.5116 9.58037 20.442 9.61031 20.3744 9.64412C20.3587 9.65187 20.3504 9.67477 20.3386 9.69062C20.3564 9.69484 20.3768 9.70699 20.3913 9.70206C20.4591 9.67829 20.476 9.71157 20.4758 9.76987C20.4755 9.89297 20.4711 10.0162 20.4769 10.139C20.4816 10.2406 20.4814 10.3313 20.3504 10.3472C20.3488 10.3473 20.3476 10.3521 20.3464 10.3547C20.3879 10.4063 20.7395 10.409 20.7967 10.3442C20.6713 10.3371 20.6861 10.2547 20.6864 10.1791C20.6873 9.99159 20.6871 9.80421 20.6871 9.61665V9.6163Z" fill="white"/>
</g>
<defs>
<clipPath id="clip0_7213_1104">
<rect width="33.6577" height="32" fill="white"/>
</clipPath>
</defs>
</svg>
