<svg width="29" height="32" viewBox="0 0 29 32" fill="none" xmlns="http://www.w3.org/2000/svg">
<g clip-path="url(#clip0_7213_1161)">
<path d="M28.5319 4.3153C28.1075 3.99217 27.6647 3.69655 27.206 3.42452C25.5552 2.44561 23.8078 1.68483 21.9764 1.11561C20.4072 0.627798 18.8063 0.292485 17.171 0.123267C16.6663 0.071079 16.1608 0.029204 15.6539 0.0134228C14.8292 -0.0123585 14.0046 -0.00860849 13.18 0.029829C12.4582 0.0634228 11.7389 0.122954 11.0224 0.217173C10.4282 0.295298 9.83815 0.39686 9.2519 0.522329C7.34128 0.931235 5.52847 1.60405 3.80769 2.52795C2.82628 3.05483 1.89612 3.66155 0.997217 4.3178C0.980811 4.32983 0.964873 4.34248 0.950029 4.35389V4.51561C0.950029 7.93342 0.949717 11.3512 0.950342 14.769C0.950342 15.5081 1.01237 16.2423 1.12722 16.9726C1.27722 17.927 1.523 18.8558 1.85847 19.7612C2.37972 21.1683 3.09878 22.4689 3.97597 23.6836C4.94659 25.0276 6.07425 26.2276 7.32128 27.317C9.13237 28.8992 11.1183 30.2225 13.2571 31.3187C13.7221 31.557 14.1953 31.7775 14.6782 31.9776C14.7494 32.0072 14.81 32.0137 14.8821 31.9811C15.1058 31.8794 15.3342 31.7883 15.5569 31.6844C16.9807 31.0198 18.3317 30.2286 19.6264 29.34C21.0794 28.3426 22.4344 27.2278 23.661 25.96C24.6474 24.9403 25.5307 23.8392 26.2772 22.6311C27.3921 20.827 28.143 18.8876 28.4453 16.7819C28.538 16.1369 28.5913 15.489 28.5913 14.8373C28.5914 11.399 28.5913 7.96061 28.5913 4.52233V4.36467C28.5633 4.34139 28.5482 4.32764 28.5319 4.3153ZM27.9053 16.3362C27.7114 17.9694 27.2375 19.5189 26.508 20.9917C25.9046 22.2098 25.1524 23.3301 24.2849 24.3744C23.2922 25.5692 22.1752 26.6367 20.9635 27.6062C19.2769 28.9558 17.4635 30.1053 15.5182 31.0451C15.32 31.1409 15.116 31.2245 14.9174 31.3195C14.828 31.3623 14.7499 31.3678 14.6571 31.323C14.3114 31.1559 13.9574 31.0055 13.6152 30.8319C11.4525 29.7356 9.45065 28.3997 7.63034 26.7956C6.48112 25.783 5.43737 24.6719 4.53128 23.4345C3.70112 22.3008 3.01269 21.0881 2.50128 19.7773C2.14456 18.8631 1.88487 17.9219 1.72519 16.9536C1.60253 16.209 1.54378 15.4587 1.54362 14.7042C1.54284 11.4247 1.54331 8.14514 1.54331 4.86577V4.66905C1.57737 4.64108 1.60362 4.61702 1.63237 4.59624C3.36737 3.34264 5.2394 2.35374 7.27315 1.67811C8.21237 1.36608 9.16987 1.12592 10.1449 0.954985C10.7607 0.847017 11.3796 0.765298 12.0021 0.707173C13.1411 0.600766 14.2827 0.571079 15.4257 0.599985C15.9633 0.613579 16.4997 0.652798 17.0353 0.707329C19.4733 0.955298 21.818 1.56592 24.0757 2.51483C25.1966 2.98592 26.2782 3.53452 27.3064 4.1853C27.54 4.33327 27.7707 4.48577 27.9975 4.66483C27.9986 4.71514 28.0008 4.77061 28.0008 4.82592C28.0011 5.44592 28.001 6.06592 28.001 6.68592C28.001 9.35561 28.001 12.0253 28.001 14.695C28.001 15.2439 27.9702 15.7912 27.9055 16.3359L27.9053 16.3362Z" fill="white"/>
<path d="M27.5507 5.0647C27.5507 5.00376 27.5485 4.94282 27.5473 4.88329C27.4899 4.84313 27.4412 4.80579 27.3893 4.77329C27.0768 4.57751 26.7687 4.37423 26.4499 4.18938C25.0181 3.35907 23.5081 2.70329 21.9349 2.19188C20.9307 1.86548 19.9095 1.60563 18.8702 1.4161C18.3057 1.31313 17.7387 1.23048 17.1682 1.16798C16.6995 1.11657 16.2298 1.07735 15.759 1.0597C15.3137 1.04298 14.8677 1.03673 14.4223 1.03923C13.5717 1.04407 12.7224 1.08251 11.8756 1.16938C11.2843 1.23016 10.6962 1.31063 10.1113 1.4161C9.11681 1.59563 8.14196 1.84891 7.18649 2.17813C5.36259 2.80673 3.67478 3.6986 2.09993 4.80891C2.06665 4.83235 2.03478 4.85798 1.99274 4.88985V5.08329C1.99274 8.31142 1.99321 11.5397 1.99243 14.7678C1.99243 15.3528 2.03399 15.9345 2.11118 16.5144C2.20993 17.2574 2.37259 17.9859 2.59524 18.7013C3.03071 20.1009 3.67915 21.3974 4.49634 22.6113C5.32431 23.8411 6.29712 24.947 7.3754 25.9617C8.58806 27.103 9.90728 28.1069 11.3099 29.0022C12.3602 29.6727 13.4448 30.2817 14.5788 30.7997C14.8238 30.9116 14.7432 30.912 14.9909 30.7991C16.0176 30.3305 17.0023 29.7841 17.9593 29.1872C19.507 28.2217 20.9563 27.128 22.2777 25.868C23.2446 24.9459 24.124 23.9481 24.8884 22.8509C25.7188 21.6589 26.3871 20.3841 26.8518 19.0052C27.1952 17.9861 27.4118 16.9408 27.5063 15.87C27.541 15.4767 27.5517 15.0825 27.5515 14.6877C27.5509 13.4886 27.5513 12.2895 27.5513 11.0905C27.5513 9.08188 27.5513 7.07313 27.5513 5.06454L27.5507 5.0647ZM21.0648 8.14267C21.1301 8.04376 21.1623 7.9347 21.2332 7.83657C21.2887 7.88126 21.3037 7.94204 21.332 7.99345C21.3588 8.04235 21.3834 8.09267 21.4123 8.14923C21.5252 8.1711 21.6395 8.19329 21.7681 8.21829C21.7434 8.2522 21.7288 8.27688 21.7098 8.2972C21.6507 8.36032 21.5899 8.42188 21.521 8.49313C21.5356 8.59829 21.5515 8.71298 21.5695 8.84157C21.536 8.8336 21.5123 8.83173 21.4917 8.82235C21.4082 8.78485 21.3259 8.74501 21.2431 8.7061C21.1599 8.7436 21.077 8.78141 20.9935 8.81813C20.9709 8.82813 20.9467 8.83501 20.9135 8.84688C20.9124 8.7211 20.9493 8.60876 20.9565 8.49095C20.8888 8.39641 20.7856 8.33329 20.7101 8.22767C20.8277 8.17438 20.9506 8.19095 21.0651 8.14267H21.0648ZM18.691 6.54376C18.7312 6.53626 18.7712 6.52735 18.8118 6.52407C18.8799 6.51845 18.9231 6.48704 18.9506 6.42282C18.9845 6.3436 19.0274 6.26829 19.0685 6.18735C19.1277 6.2222 19.1399 6.27985 19.1646 6.32766C19.2737 6.53923 19.2259 6.50188 19.4417 6.5372C19.4918 6.54532 19.5417 6.55642 19.6032 6.56845C19.5906 6.59313 19.584 6.61657 19.5695 6.63266C19.5082 6.70095 19.4446 6.76704 19.3671 6.84985C19.3546 6.9497 19.4156 7.06673 19.401 7.20048C19.2829 7.16251 19.1888 7.08845 19.0759 7.05173C18.9762 7.10048 18.8759 7.14938 18.7476 7.21204C18.7667 7.07532 18.7818 6.96517 18.7981 6.84876C18.7385 6.74673 18.6212 6.68907 18.5495 6.57235C18.6052 6.5611 18.6481 6.55188 18.691 6.54407V6.54376ZM11.8768 9.73688C11.8835 9.3411 11.9371 8.95095 12.0246 8.56517C12.0277 8.55141 12.0384 8.53938 12.0445 8.52876C12.0785 8.52126 12.0788 8.54767 12.0859 8.56376C12.1977 8.82157 12.3837 9.0147 12.614 9.1686C12.8599 9.33298 13.1327 9.43423 13.4179 9.50423C13.5167 9.52845 13.6174 9.5447 13.7484 9.57079C13.6307 9.44485 13.529 9.34563 13.4385 9.23704C13.3437 9.12313 13.2542 9.00376 13.1724 8.88001C13.0935 8.76063 13.0223 8.63548 12.9577 8.50767C12.8932 8.38001 12.8359 8.24798 12.7849 8.11423C12.7342 7.98048 12.6898 7.8436 12.6526 7.70548C12.614 7.56235 12.582 7.41688 12.5568 7.27079C12.5326 7.1297 12.5193 6.98657 12.5042 6.84407C12.489 6.70188 12.4756 6.55938 12.4876 6.40423C12.6084 6.43407 12.7202 6.46782 12.8345 6.48845C12.9448 6.50845 13.0577 6.51985 13.1677 6.48704C13.1954 6.43548 13.1624 6.39438 13.149 6.35376C13.0499 6.05688 12.9727 5.75454 12.9227 5.44563C12.8892 5.23798 12.8713 5.02891 12.8771 4.81813C12.8788 4.7547 12.892 4.6997 12.932 4.64751C13.5135 3.88907 14.1481 3.18048 14.8788 2.56157C14.9057 2.53876 14.9351 2.51876 14.9693 2.49266C15.0006 2.51282 15.0312 2.52985 15.059 2.55063C15.3215 2.74798 15.5707 2.96063 15.8002 3.19579C15.9329 3.33173 16.0582 3.47407 16.1635 3.63235C16.2117 3.7047 16.2542 3.78095 16.2948 3.85782C16.3843 4.02704 16.404 4.20626 16.3726 4.39485C16.3151 4.73907 16.2395 5.07813 16.1109 5.40391C16.1035 5.42251 16.1013 5.44313 16.0956 5.46845C16.1577 5.49735 16.2171 5.48391 16.2746 5.46782C16.4245 5.42579 16.5406 5.33454 16.6212 5.20391C16.6773 5.11298 16.7202 5.01407 16.7727 4.91173C16.787 4.9322 16.8045 4.95001 16.8132 4.97142C17.004 5.43642 17.1685 5.90954 17.2576 6.40641C17.3043 6.66673 17.3026 6.92517 17.2602 7.18563C17.1713 7.73188 17.0451 8.27017 16.9201 8.80876C16.8379 9.16282 16.7559 9.51688 16.6748 9.87126C16.6602 9.93485 16.642 9.99938 16.6621 10.0672C16.7218 10.0834 16.7698 10.0636 16.8107 10.0345C16.8896 9.97829 16.971 9.92298 17.0398 9.85532C17.2642 9.63423 17.4007 9.36095 17.4884 9.06142C17.5042 9.00751 17.5143 8.95188 17.5292 8.89751C17.5326 8.88501 17.5446 8.8747 17.5531 8.86298C17.5631 8.87142 17.5745 8.87626 17.5752 8.88251C17.627 9.2536 17.6537 9.62626 17.6412 10.0009C17.6312 10.2984 17.5987 10.5934 17.5218 10.882C17.4552 11.1322 17.3531 11.3655 17.1904 11.5689C17.0081 11.7969 16.8242 12.0238 16.6402 12.2505C16.579 12.3261 16.514 12.3988 16.4531 12.4747C16.4251 12.5097 16.391 12.5438 16.3945 12.5953C16.4302 12.6303 16.4727 12.6183 16.5096 12.6081C16.8593 12.5124 17.1868 12.3734 17.4498 12.1128C17.457 12.1056 17.4643 12.0986 17.4726 12.0928C17.4757 12.0906 17.4815 12.092 17.491 12.0916C17.4954 12.1033 17.5049 12.1166 17.5045 12.1295C17.4882 12.6277 17.4306 13.1203 17.2963 13.6016C17.2648 13.7147 17.2238 13.8256 17.1812 13.9353C17.1138 14.1081 17.0207 14.2663 16.9052 14.4122C16.7559 14.6011 16.6102 14.7928 16.4645 14.9845C16.4251 15.0364 16.3827 15.088 16.3634 15.1661C16.3946 15.1692 16.4196 15.1786 16.4399 15.1727C16.5232 15.1484 16.6057 15.1213 16.6874 15.0919C16.7254 15.0783 16.7607 15.057 16.8104 15.033C16.8076 15.0675 16.8109 15.0925 16.8032 15.1133C16.5687 15.7417 16.3317 16.3694 16.0435 16.9759C15.9952 17.0777 15.939 17.1755 15.8874 17.2756C15.8382 17.3714 15.8484 17.4386 15.9292 17.5075C15.9676 17.5403 16.0135 17.565 16.0579 17.5902C16.0931 17.61 16.1312 17.6249 16.1815 17.6481C16.1577 17.6656 16.1451 17.6797 16.1292 17.6863C16.0534 17.7172 15.9756 17.7434 15.9007 17.7764C15.7156 17.858 15.5526 17.9711 15.4193 18.125C15.3757 18.1753 15.3263 18.2208 15.2848 18.2727C15.2209 18.3525 15.1446 18.3658 15.0552 18.3311C15.0302 18.1988 14.9587 14.6716 14.9376 12.4286C14.9192 10.4664 14.9042 8.50407 14.8876 6.54188C14.886 6.54032 14.8843 6.53876 14.8827 6.5372C14.8479 7.53032 14.8126 8.52345 14.7784 9.51657C14.747 10.4228 14.7157 11.3292 14.6862 12.2356C14.6543 13.2086 14.6224 14.1816 14.5943 15.1545C14.5648 16.1738 14.5399 17.193 14.5126 18.2122C14.5115 18.2513 14.5067 18.2902 14.504 18.3225C14.4624 18.3436 14.4443 18.3224 14.4271 18.3049C14.3552 18.2319 14.2874 18.1547 14.2124 18.085C14.1037 17.9841 13.9934 17.8841 13.8776 17.7914C13.7452 17.6853 13.6017 17.5961 13.4342 17.5533C13.426 17.5513 13.4201 17.5402 13.4132 17.5334C13.4798 17.4706 13.5168 17.448 13.6459 17.4113C13.7334 17.3863 13.8232 17.3697 13.9193 17.3477C13.9156 17.2806 13.8938 17.2238 13.8749 17.1669C13.6518 16.4936 13.2692 15.9286 12.7262 15.4722C12.6874 15.4397 12.6493 15.4066 12.5846 15.3514C12.8068 15.3977 12.976 15.492 13.1774 15.5584C13.1018 15.4038 13.0113 15.2811 12.9429 15.1464C12.871 15.0049 12.7965 14.8645 12.7296 14.7206C12.6649 14.5814 12.6048 14.4399 12.5496 14.2966C12.4926 14.1486 12.4401 13.9984 12.3927 13.8472C12.347 13.7008 12.306 13.5524 12.2704 13.4031C12.2346 13.2539 12.2037 13.1031 12.1787 12.9517C12.1529 12.7952 12.1327 12.6374 12.1177 12.4795C12.1035 12.3297 12.0987 12.1789 12.097 12.0056C12.1588 12.042 12.1777 12.0795 12.2067 12.1056C12.2332 12.1297 12.2579 12.1561 12.2862 12.1778C12.3185 12.2028 12.3527 12.2256 12.3882 12.2461C12.4192 12.2639 12.452 12.2792 12.4854 12.2916C12.5238 12.3056 12.5634 12.3177 12.6034 12.3256C12.6376 12.3325 12.6731 12.3324 12.7092 12.3355C12.7276 12.2844 12.6979 12.2516 12.6818 12.2175C12.5027 11.8375 12.334 11.4531 12.1846 11.0605C12.0826 10.7924 11.9893 10.5214 11.926 10.2409C11.8885 10.075 11.8751 9.90642 11.8779 9.7372L11.8768 9.73688ZM15.5606 19.6228C15.632 19.6914 15.7168 19.7406 15.8088 19.7727C15.9438 19.8197 16.0818 19.8589 16.219 19.8997C16.3759 19.9464 16.5342 19.9884 16.6902 20.0372C16.9982 20.1333 17.1579 20.3484 17.1956 20.6656C17.2121 20.8053 17.2085 20.9428 17.1754 21.0775C17.099 21.3883 16.8981 21.5877 16.5946 21.6744C16.3345 21.7486 16.0757 21.7177 15.8299 21.6077C15.7565 21.5749 15.6927 21.5197 15.6263 21.4722C15.5942 21.4492 15.5662 21.4203 15.5337 21.3916C15.4715 21.4408 15.4385 21.5059 15.392 21.5594C15.3459 21.6124 15.3151 21.6795 15.2418 21.7249C15.2346 21.6986 15.2256 21.6809 15.2256 21.6633C15.2246 21.2945 15.2248 20.9258 15.2249 20.557C15.2249 20.5367 15.2226 20.5139 15.2307 20.4966C15.2381 20.4809 15.2571 20.4631 15.2727 20.4611C15.2884 20.4592 15.3132 20.4716 15.3217 20.4853C15.3343 20.5063 15.3351 20.5339 15.3427 20.5581C15.3918 20.7142 15.434 20.873 15.4935 21.0249C15.5323 21.1236 15.5901 21.217 15.6512 21.3045C15.7451 21.4392 15.8776 21.5231 16.0367 21.5674C16.1467 21.5978 16.2582 21.6078 16.371 21.6044C16.5098 21.6002 16.6274 21.5436 16.7306 21.4514C16.9334 21.2702 16.9182 20.9483 16.7365 20.78C16.6679 20.7164 16.5907 20.6661 16.5037 20.6342C16.3598 20.5814 16.2143 20.5324 16.0687 20.4844C15.9424 20.4428 15.8143 20.4064 15.6882 20.3645C15.6301 20.3453 15.5735 20.3205 15.5181 20.2944C15.2207 20.1545 15.0917 19.9128 15.1034 19.5864C15.1212 19.0889 15.5565 18.7811 15.9387 18.7922C16.1587 18.7986 16.366 18.8345 16.5467 18.9699C16.5707 18.988 16.5984 19.0013 16.6327 19.0219C16.7429 18.953 16.8152 18.8563 16.926 18.7892C16.9349 18.8134 16.9467 18.8303 16.9467 18.8472C16.9479 19.1442 16.9479 19.4413 16.9474 19.7383C16.9474 19.7528 16.9398 19.7672 16.936 19.7808C16.8918 19.7966 16.8635 19.7806 16.8515 19.74C16.837 19.6911 16.8285 19.6402 16.8138 19.5913C16.7485 19.3739 16.6279 19.1931 16.4476 19.0549C16.2524 18.9053 16.0331 18.86 15.7949 18.9209C15.7363 18.9359 15.6781 18.9611 15.6263 18.9927C15.3957 19.1328 15.3657 19.4352 15.5609 19.6228H15.5606ZM14.1592 21.5397C14.2706 21.5538 14.3835 21.5556 14.4959 21.5622C14.5463 21.5652 14.597 21.5663 14.6529 21.5684C14.6562 21.5995 14.6587 21.6231 14.6621 21.655C14.6317 21.6616 14.6082 21.6709 14.5848 21.6709C13.9959 21.6719 13.407 21.6719 12.8179 21.6714C12.7931 21.6714 12.7682 21.6644 12.7381 21.6599C12.7359 21.6324 12.7338 21.6083 12.7323 21.5875C12.7465 21.5784 12.7548 21.5689 12.7634 21.5684C12.8554 21.5645 12.9477 21.5649 13.0395 21.5584C13.1262 21.5525 13.2129 21.5436 13.2985 21.5292C13.3746 21.5164 13.3937 21.4908 13.3985 21.4167C13.4006 21.3861 13.3998 21.3553 13.3998 21.3245C13.3998 20.5819 13.3998 19.8392 13.3998 19.0966V18.9533C13.3649 18.9442 13.3363 18.9299 13.3082 18.9311C13.2471 18.9336 13.1849 18.9386 13.1256 18.9524C12.9737 18.9875 12.8577 19.0742 12.776 19.2081C12.6979 19.3363 12.6476 19.4758 12.6084 19.6191C12.5801 19.7225 12.5609 19.8286 12.5379 19.9334C12.526 19.988 12.5146 20.0425 12.5013 20.1045C12.4682 20.1064 12.4392 20.1081 12.4138 20.1097C12.404 20.0967 12.3946 20.0895 12.3927 20.0809C12.3887 20.0611 12.387 20.0403 12.387 20.02C12.3867 19.6513 12.3868 19.2825 12.3871 18.9138C12.3871 18.8936 12.3912 18.8734 12.3931 18.8563C12.4277 18.8174 12.471 18.828 12.5104 18.828C12.7818 18.827 13.0532 18.8275 13.3246 18.8275C13.8213 18.8275 14.3181 18.8274 14.8149 18.8278C14.8702 18.8278 14.9256 18.8311 14.9896 18.8331C15.011 19.0425 15.0051 20.0006 14.9834 20.1106H14.8881C14.874 20.0374 14.8635 19.9672 14.8467 19.8986C14.809 19.7447 14.771 19.5908 14.7271 19.4388C14.7088 19.3755 14.6787 19.3147 14.6479 19.2561C14.5217 19.015 14.3121 18.9247 14.0502 18.933C14.0406 18.9333 14.0307 18.9386 14.0215 18.9427C14.0171 18.9445 14.0138 18.9492 13.9999 18.9616C13.9981 18.9864 13.9932 19.0209 13.9932 19.0556C13.9927 19.8188 13.9924 20.5819 13.9932 21.345C13.9932 21.51 13.9999 21.5202 14.159 21.5403L14.1592 21.5397ZM13.014 22.7495C13.0531 22.7577 13.0876 22.7622 13.1204 22.7725C13.1504 22.7819 13.156 22.8047 13.1359 22.838C13.0027 22.8509 12.8652 22.848 12.7281 22.84C12.6967 22.8381 12.6895 22.8122 12.7073 22.7789C12.7374 22.7717 12.772 22.7636 12.8063 22.7555C12.812 22.747 12.822 22.7391 12.8224 22.7303C12.8327 22.5777 12.8323 22.4252 12.8237 22.2778C12.7798 22.2472 12.7545 22.272 12.7427 22.2984C12.7202 22.3494 12.7085 22.4049 12.6881 22.4567C12.6818 22.4727 12.6623 22.492 12.6476 22.493C12.6356 22.4938 12.6112 22.4702 12.6106 22.4566C12.6071 22.3705 12.6088 22.2842 12.6088 22.192C12.7152 22.1583 12.8174 22.1774 12.9174 22.1744C13.0137 22.1716 13.1101 22.1756 13.2032 22.1766C13.2277 22.2695 13.2373 22.4088 13.2215 22.4709C13.2188 22.4816 13.1996 22.495 13.1885 22.4945C13.1776 22.4941 13.1617 22.4795 13.1577 22.4678C13.141 22.4197 13.131 22.3691 13.1126 22.3216C13.0999 22.2889 13.0799 22.2566 13.0348 22.2633C13.0279 22.2708 13.0162 22.2775 13.0156 22.285C13.004 22.4378 13.007 22.5905 13.0138 22.7494L13.014 22.7495ZM12.132 22.4442C12.0795 22.318 12.1668 22.1814 12.3032 22.1706C12.3334 22.1683 12.3643 22.1716 12.3943 22.1761C12.4795 22.1889 12.4873 22.1892 12.5706 22.163C12.5706 22.227 12.5717 22.2778 12.5702 22.3284C12.5692 22.3691 12.5581 22.4106 12.5642 22.4499C12.5693 22.483 12.5957 22.5122 12.6073 22.545C12.6709 22.7259 12.5399 22.8803 12.3518 22.8456C12.3173 22.8392 12.2845 22.8234 12.2442 22.8095C12.2193 22.8241 12.1904 22.8411 12.1626 22.8574C12.1518 22.8455 12.1399 22.8386 12.1396 22.8313C12.137 22.745 12.1267 22.6574 12.1385 22.5728C12.1451 22.5264 12.1507 22.4895 12.1318 22.4441L12.132 22.4442ZM13.2682 22.675C13.3112 22.672 13.3565 22.7128 13.3596 22.7574C13.3626 22.8013 13.3224 22.8455 13.2771 22.848C13.2315 22.8505 13.1876 22.8113 13.1863 22.7669C13.1851 22.7219 13.224 22.6783 13.2682 22.6752V22.675ZM10.2042 6.52376C10.2723 6.51766 10.3149 6.48641 10.342 6.42173C10.3752 6.34235 10.4184 6.2672 10.462 6.18079C10.5526 6.27595 10.5746 6.39673 10.6492 6.49766C10.7513 6.53876 10.8718 6.5336 10.9935 6.57141C10.982 6.59345 10.9749 6.61673 10.9601 6.63313C10.899 6.70142 10.8356 6.76782 10.7574 6.85141C10.7438 6.95016 10.8117 7.06673 10.7881 7.19876C10.6735 7.16266 10.5798 7.08751 10.4665 7.05173C10.3667 7.10048 10.2665 7.14938 10.1385 7.21188C10.1577 7.07423 10.1732 6.96407 10.1893 6.84891C10.1295 6.74548 10.0109 6.68892 9.9404 6.57048C10.0371 6.55141 10.1195 6.53126 10.2042 6.5236V6.52376ZM7.89931 8.19313C7.93931 8.18516 7.9804 8.1822 8.0204 8.17454C8.06024 8.16688 8.09946 8.1561 8.14196 8.1461C8.19587 8.04141 8.24931 7.93751 8.30774 7.82392C8.39259 7.92845 8.42103 8.0511 8.48931 8.14376C8.60353 8.19048 8.72618 8.17548 8.84321 8.22704C8.77431 8.32735 8.6765 8.38829 8.60665 8.47892C8.5829 8.59751 8.65478 8.71423 8.62962 8.85001C8.51993 8.79735 8.41978 8.74907 8.32165 8.70188C8.20384 8.72954 8.1154 8.81751 7.98493 8.84141C8.00118 8.71563 8.01603 8.60079 8.03087 8.48485C7.94821 8.40173 7.86993 8.32267 7.78399 8.23626C7.82212 8.20345 7.86212 8.20063 7.89915 8.19329L7.89931 8.19313ZM5.40774 15.938C5.4104 15.8813 5.4104 15.8416 5.41446 15.8025C5.41759 15.7722 5.42446 15.7419 5.43181 15.7122C5.45618 15.6149 5.43993 15.5347 5.3529 15.4702C5.29743 15.4291 5.24806 15.3772 5.1979 15.3155C5.2504 15.2809 5.2979 15.287 5.34024 15.2764C5.37978 15.2666 5.42056 15.2591 5.46103 15.2564C5.53024 15.252 5.57181 15.2184 5.59946 15.1549C5.63384 15.0758 5.67649 15.0005 5.7229 14.9094C5.74571 14.9392 5.76212 14.9556 5.77243 14.9753C5.80556 15.0388 5.83868 15.1024 5.86743 15.1677C5.89056 15.22 5.92712 15.2464 5.98321 15.2541C6.06915 15.2659 6.15446 15.2819 6.25931 15.2994C6.22556 15.3733 6.17368 15.4075 6.13118 15.4491C6.00524 15.572 6.00431 15.5714 6.03446 15.7413C6.04509 15.8009 6.06212 15.8599 6.0454 15.9338C5.93946 15.883 5.83915 15.835 5.73024 15.7827C5.63024 15.8308 5.52587 15.8811 5.40743 15.9381L5.40774 15.938ZM6.90759 18.1336C6.84024 18.2031 6.77056 18.2703 6.70337 18.3366C6.70946 18.46 6.7504 18.5725 6.74509 18.7005C6.62837 18.6627 6.53681 18.5944 6.41884 18.5497C6.32337 18.5963 6.21868 18.6474 6.10118 18.7047C6.09087 18.5749 6.13134 18.4639 6.14087 18.3386C6.0629 18.2603 5.98087 18.1778 5.90368 18.1002C5.91149 18.0547 5.94071 18.0581 5.96431 18.0541C6.03493 18.0417 6.10556 18.0295 6.1765 18.0189C6.22618 18.0114 6.25946 17.9874 6.28118 17.9405C6.31978 17.8572 6.36275 17.7761 6.41087 17.6803C6.434 17.7074 6.45259 17.7228 6.46321 17.7427C6.49696 17.8059 6.53056 17.8694 6.55868 17.9352C6.58181 17.9891 6.62071 18.0124 6.67571 18.0205C6.76149 18.0331 6.84665 18.0489 6.9454 18.0656C6.93009 18.0939 6.9229 18.1177 6.90759 18.1334V18.1336ZM8.33087 20.5005C8.26306 20.5692 8.19306 20.6356 8.12446 20.7024C8.14134 20.8256 8.15712 20.9405 8.17462 21.0675C8.04665 21.0333 7.95431 20.9553 7.83868 20.9186C7.74103 20.9664 7.64103 21.0153 7.54556 21.0622C7.5054 21.0438 7.51899 21.0161 7.52196 20.9933C7.53446 20.8977 7.54853 20.8022 7.56103 20.7145C7.49103 20.6089 7.38024 20.553 7.31353 20.4378C7.36462 20.428 7.40274 20.4203 7.44087 20.4133C7.48103 20.4058 7.52103 20.3942 7.56134 20.3928C7.64384 20.3899 7.68899 20.3483 7.72087 20.2739C7.75243 20.2005 7.78509 20.1256 7.84837 20.0399C7.89165 20.1247 7.92946 20.1859 7.95493 20.2519C7.98993 20.3425 8.04446 20.393 8.14681 20.3964C8.21728 20.3988 8.28712 20.42 8.36931 20.435C8.35431 20.4613 8.34649 20.4847 8.33103 20.5005H8.33087ZM9.03634 16.6174C8.66665 16.2775 8.3004 15.9341 7.93274 15.5919C7.89915 15.5606 7.86587 15.5292 7.83712 15.5022C7.84353 15.4389 7.89149 15.4333 7.92462 15.4163C8.27149 15.2394 8.62353 15.0739 8.98431 14.9272C9.02165 14.912 9.059 14.8969 9.11321 14.875C9.084 14.8574 9.07025 14.843 9.05462 14.8406C8.66228 14.7791 8.27009 14.762 7.87931 14.8536C7.65212 14.9069 7.44056 14.993 7.25774 15.1419C7.24634 15.1511 7.23149 15.1563 7.21993 15.1625C6.84321 14.9997 6.43603 14.653 6.33212 14.4009C6.38446 14.3583 6.43774 14.3109 6.49493 14.2691C6.65696 14.1508 6.83228 14.0545 7.01415 13.9717C7.20509 13.8847 7.39993 13.8063 7.5929 13.7241C7.62993 13.7083 7.66665 13.6922 7.71978 13.6692C7.68228 13.6525 7.66118 13.6381 7.63821 13.6338C7.28931 13.5674 6.93743 13.538 6.58306 13.5686C6.26274 13.5963 5.95665 13.6725 5.69134 13.8814C5.19149 13.6169 4.75056 13.2778 4.33587 12.9019C3.93915 12.5422 3.54681 12.1208 3.46524 11.9647C3.64665 11.8811 3.84603 11.905 4.03774 11.8677C4.06868 11.8006 4.04915 11.7424 3.99821 11.7036C3.94212 11.6611 3.87806 11.6247 3.81212 11.6002C3.65759 11.5428 3.49478 11.5208 3.33118 11.5058C3.27056 11.5002 3.20978 11.4955 3.15071 11.4905C3.09603 11.3836 3.09759 11.2739 3.08478 11.1688C3.05665 10.9383 3.06556 10.7089 3.12759 10.483C3.17493 10.3105 3.26071 10.165 3.39462 10.0434C3.73056 9.7386 4.1229 9.55298 4.56806 9.4772C4.97134 9.40845 5.37462 9.42407 5.77618 9.49298C6.46899 9.61188 7.1179 9.85923 7.74243 10.1749C7.91149 10.2603 8.07399 10.3584 8.24212 10.4458C8.33993 10.4966 8.40259 10.5724 8.43149 10.6753C8.48118 10.8527 8.52837 11.0306 8.57353 11.2092C8.61759 11.3828 8.65368 11.5586 8.70134 11.7313C8.72431 11.8144 8.75821 11.8967 8.80087 11.9716C8.86493 12.0839 8.96415 12.092 9.05087 11.9941C9.09415 11.945 9.13275 11.8869 9.15587 11.8261C9.20321 11.702 9.23962 11.5739 9.27853 11.4467C9.29337 11.3981 9.30228 11.3478 9.3129 11.302C9.36181 11.2786 9.38571 11.3141 9.41134 11.3338C9.63524 11.5064 9.8329 11.707 10.0267 11.912C10.0646 11.9522 10.0837 11.9981 10.0759 12.0516C10.0634 12.1375 10.0476 12.2231 10.0315 12.3084C10.0232 12.3527 10.011 12.3961 10.0018 12.4342C10.0306 12.465 10.0573 12.4586 10.079 12.4472C10.1332 12.4189 10.1867 12.3886 10.2377 12.3549C10.2759 12.3297 10.3095 12.298 10.3521 12.2636C10.3721 12.2792 10.3948 12.2911 10.4093 12.3094C10.5593 12.4977 10.7065 12.6881 10.8573 12.8758C10.952 12.9936 10.9931 13.1236 10.9768 13.2753C10.9462 13.5605 10.9213 13.8461 10.8931 14.1314C10.8826 14.2372 10.8688 14.3427 10.8551 14.462C10.8932 14.4491 10.9206 14.4467 10.9384 14.4325C11.0018 14.3814 11.0712 14.3334 11.1213 14.2708C11.1946 14.1795 11.2542 14.077 11.3179 13.9783C11.3423 13.9405 11.362 13.8995 11.3848 13.8584C11.5076 13.9878 11.7102 14.3677 11.849 14.7241C11.9665 15.0259 12.0498 15.337 12.0987 15.657C12.1482 15.9813 12.1552 16.3072 12.1193 16.6358C12.2648 16.6142 12.2838 16.5997 12.5621 16.3002C12.5754 16.3217 12.5923 16.3392 12.5977 16.3599C12.6654 16.6125 12.7138 16.8692 12.7477 17.1283C12.7949 17.4892 12.8232 17.8519 12.8207 18.2163C12.8204 18.2513 12.8207 18.2864 12.8207 18.3178C12.7092 18.3542 12.4393 18.3589 12.2732 18.3288C12.2517 18.2725 12.2273 18.2114 12.2048 18.1497C11.8452 17.1663 11.4126 16.2167 10.8842 15.312C10.4824 14.6245 10.0288 13.9744 9.49415 13.3825C9.21884 13.0778 8.92368 12.7941 8.60478 12.535C8.08337 12.1114 7.54462 11.7117 6.96962 11.3631C6.54837 11.1077 6.11321 10.88 5.64524 10.7208C5.42165 10.6447 5.19431 10.5842 4.95681 10.5719C4.93337 10.5706 4.90556 10.5608 4.88884 10.5966C4.90103 10.6025 4.91228 10.6105 4.92478 10.6139C5.88462 10.8864 6.74087 11.3575 7.52431 11.9684C8.21071 12.5036 8.81337 13.1233 9.35993 13.7988C10.1074 14.7224 10.7329 15.7249 11.277 16.7792C11.5143 17.2391 11.7345 17.707 11.9334 18.1847C11.9526 18.2308 11.9851 18.2739 11.9746 18.3372C11.9354 18.3405 11.8956 18.3467 11.8557 18.3469C11.6046 18.3478 11.3535 18.3455 11.1026 18.3484C11.0265 18.3494 10.9665 18.3297 10.9084 18.2775C10.6971 18.0881 10.4643 17.9313 10.1965 17.8311C10.1837 17.8263 10.1745 17.8122 10.1545 17.7942C10.3565 17.6813 10.5731 17.7005 10.7965 17.6867C10.7817 17.6566 10.7748 17.6328 10.7604 17.6152C10.6556 17.4847 10.5212 17.3924 10.372 17.3203C10.1671 17.2214 9.95009 17.1619 9.72509 17.1358C9.64962 17.127 9.58853 17.1022 9.53275 17.053C9.36775 16.907 9.19821 16.7661 9.03603 16.617L9.03634 16.6174ZM10.5435 22.7394C10.5599 22.8531 10.5757 22.9633 10.5932 23.0842C10.5204 23.0838 10.4742 23.0414 10.4215 23.0186C10.3702 22.9963 10.3207 22.9699 10.2629 22.9417C10.1604 22.9913 10.0557 23.0419 9.94056 23.0977C9.92978 22.9691 9.974 22.8581 9.979 22.7366C9.91368 22.6406 9.80446 22.5763 9.72196 22.462C9.82712 22.4442 9.91087 22.4283 9.9954 22.4164C10.062 22.407 10.1051 22.3766 10.1338 22.313C10.1685 22.2358 10.1987 22.1547 10.2581 22.08C10.3099 22.1222 10.3231 22.1788 10.3493 22.2259C10.3767 22.275 10.3998 22.3263 10.4263 22.3795C10.5334 22.4416 10.6648 22.4152 10.7848 22.4708C10.7277 22.5777 10.6156 22.6322 10.5435 22.7395V22.7394ZM10.0187 21.6567C10.0215 21.6241 10.0235 21.6005 10.0263 21.5666C10.0921 21.5649 10.1529 21.5656 10.2135 21.5614C10.3359 21.5527 10.4587 21.5452 10.5802 21.5297C10.657 21.5199 10.6765 21.4936 10.684 21.4195C10.6881 21.3789 10.6877 21.3377 10.6877 21.2967C10.6879 20.5642 10.6877 19.8319 10.6877 19.0994V18.9563C10.652 18.9458 10.624 18.9302 10.5963 18.9311C10.5352 18.9331 10.4731 18.9381 10.4135 18.9516C10.2615 18.9859 10.1445 19.0719 10.0626 19.2053C9.98681 19.3288 9.93525 19.4625 9.89915 19.6014C9.86321 19.74 9.83618 19.8808 9.8054 20.0208C9.80009 20.0452 9.79509 20.0697 9.78821 20.1027C9.75603 20.1053 9.72728 20.1078 9.69728 20.1103C9.68978 20.093 9.67962 20.0795 9.679 20.0658C9.67618 20.0045 9.67509 19.943 9.67509 19.8816C9.67478 19.5897 9.67509 19.2977 9.67509 19.0058V18.8642C9.71634 18.8164 9.75978 18.8277 9.799 18.8275C10.1473 18.8266 10.4956 18.8269 10.8438 18.8269C11.2638 18.8269 11.6837 18.8267 12.1037 18.827C12.159 18.827 12.2143 18.83 12.2552 18.8313C12.272 18.8463 12.2767 18.8491 12.2795 18.8531C12.2821 18.8572 12.2845 18.8624 12.2845 18.867C12.2865 19.2511 12.2882 19.635 12.2896 20.0191C12.2896 20.0442 12.2867 20.0694 12.2843 20.1047C12.2482 20.1081 12.216 20.1113 12.1743 20.1153C12.162 20.0531 12.1501 19.9992 12.1407 19.9447C12.1113 19.7728 12.0737 19.6031 12.0146 19.4389C11.9781 19.3375 11.9335 19.2395 11.8671 19.1536C11.7334 18.9803 11.5023 18.8984 11.2874 18.9527C11.2849 18.9895 11.2798 19.0292 11.2798 19.0689C11.2793 19.8269 11.2792 20.585 11.2798 21.343C11.2798 21.5159 11.2809 21.5191 11.4576 21.5417C11.5588 21.5547 11.6617 21.5561 11.7638 21.5616C11.8196 21.5645 11.8754 21.5653 11.9404 21.5674V21.6609C11.9023 21.6647 11.8673 21.6706 11.8323 21.6714C11.1402 21.6856 10.1799 21.6786 10.0185 21.6564L10.0187 21.6567ZM11.4782 22.8372C11.4681 22.8284 11.4592 22.8159 11.4554 22.8033C11.4535 22.7969 11.4624 22.782 11.4698 22.7794C11.4976 22.7688 11.5267 22.7616 11.5634 22.7508C11.5785 22.6714 11.5701 22.59 11.5717 22.5095C11.5731 22.4331 11.572 22.3567 11.572 22.2741C11.5288 22.255 11.4896 22.2377 11.4512 22.2206C11.4568 22.2041 11.4579 22.1884 11.4632 22.1869C11.5334 22.1659 11.9568 22.1695 12.0784 22.192C12.0901 22.2749 12.0951 22.3599 12.0773 22.445C12.0752 22.4545 12.0557 22.4603 12.0399 22.4708C11.9951 22.4209 12.0184 22.3363 11.9395 22.2945C11.9182 22.4333 11.9452 22.5649 11.9206 22.6966C11.897 22.6914 11.874 22.6924 11.8707 22.6847C11.8546 22.6475 11.8468 22.6064 11.8293 22.5702C11.8229 22.5569 11.7979 22.5483 11.7804 22.5466C11.7724 22.5458 11.7551 22.5667 11.7545 22.5784C11.7517 22.6336 11.7532 22.6891 11.7532 22.7509C11.7865 22.7569 11.8106 22.7653 11.8342 22.7645C11.9517 22.7611 11.9876 22.7339 12.0245 22.6249C12.0359 22.5913 12.0446 22.5567 12.0571 22.5234C12.0593 22.5177 12.0746 22.5136 12.0834 22.5144C12.092 22.5152 12.1002 22.5227 12.1077 22.5284C12.1113 22.5314 12.1146 22.537 12.1149 22.5417C12.1217 22.6375 12.1315 22.7336 12.1071 22.8283C12.0879 22.8344 12.0737 22.8427 12.0595 22.8427C11.8754 22.8439 11.6913 22.8441 11.5074 22.8441C11.4976 22.8441 11.4851 22.8431 11.4785 22.8374L11.4782 22.8372ZM17.8109 24.8363C17.7077 24.9544 17.5804 25.0403 17.4351 25.0955C16.9899 25.2647 16.5545 25.2588 16.1345 25.0133C15.9245 24.8906 15.7437 24.7333 15.5818 24.5531C15.5485 24.5161 15.5154 24.4789 15.4731 24.4314C15.4479 24.4903 15.4626 24.5344 15.4692 24.5764C15.5117 24.8455 15.5299 25.1159 15.5181 25.388C15.5052 25.6808 15.4623 25.9689 15.3662 26.2472C15.266 26.5372 15.1152 26.7959 14.8907 27.0084C14.8723 27.0259 14.8523 27.0417 14.8259 27.0645C14.7973 27.0444 14.7665 27.0281 14.7421 27.005C14.4868 26.7614 14.327 26.4614 14.2324 26.1252C14.1288 25.7567 14.0959 25.3803 14.1242 24.9992C14.1381 24.8109 14.1618 24.6234 14.1827 24.42C14.151 24.4509 14.1259 24.4724 14.1045 24.4972C13.9498 24.6766 13.779 24.8378 13.5793 24.9667C13.3784 25.0964 13.1621 25.1875 12.9218 25.2049C12.6306 25.2259 12.3502 25.1802 12.089 25.0419C11.9931 24.9911 11.9073 24.9269 11.8343 24.8466C11.8182 24.8288 11.8068 24.8067 11.7937 24.7874C11.8257 24.7459 11.8643 24.7605 11.8971 24.7588C12.0823 24.7491 12.2637 24.7178 12.439 24.6583C12.7809 24.5424 13.0501 24.3309 13.2501 24.0311C13.4202 23.7759 13.522 23.4931 13.5846 23.195C13.6482 22.8928 13.6709 22.587 13.6606 22.2786C13.6596 22.2484 13.6606 22.2181 13.6606 22.1797C13.8652 22.138 15.717 22.1392 15.9601 22.1784C15.9923 22.2188 15.9768 22.2664 15.976 22.3106C15.9706 22.5983 15.9871 22.8839 16.0452 23.1664C16.096 23.4134 16.1715 23.652 16.2921 23.8744C16.5567 24.362 16.9624 24.6506 17.5123 24.7325C17.6181 24.7483 17.7248 24.7572 17.8431 24.7708C17.8312 24.7953 17.8252 24.8197 17.8106 24.8364L17.8109 24.8363ZM17.8698 22.3842C17.8073 22.4724 17.7901 22.5692 17.7899 22.6741C17.7899 22.7186 17.7773 22.7649 17.7607 22.8066C17.7534 22.825 17.7232 22.8406 17.7009 22.8452C17.6674 22.8519 17.6432 22.8283 17.6288 22.7995C17.607 22.7556 17.6088 22.7089 17.6276 22.6656C17.6518 22.6095 17.681 22.5555 17.7102 22.5017C17.7318 22.462 17.757 22.4242 17.7865 22.3755C17.7335 22.3606 17.6915 22.3488 17.6415 22.3349C17.6179 22.3842 17.5974 22.4275 17.5726 22.4795C17.5449 22.4581 17.5237 22.4417 17.4952 22.4199C17.4902 22.4431 17.4796 22.4633 17.4837 22.4799C17.4909 22.5091 17.511 22.5349 17.5188 22.5641C17.5484 22.6759 17.5062 22.775 17.411 22.8247C17.3173 22.8736 17.2037 22.8538 17.1317 22.7725C17.1088 22.7467 17.0924 22.7152 17.0698 22.6813C17.0429 22.7164 17.0207 22.7506 16.9935 22.7802C16.9501 22.8274 16.8956 22.8517 16.8299 22.8505C16.6923 22.8478 16.5546 22.8472 16.417 22.8445C16.3879 22.8439 16.3545 22.8511 16.3349 22.8139C16.3473 22.7575 16.4159 22.7864 16.4474 22.738C16.4493 22.6066 16.4563 22.4644 16.4426 22.3194C16.4024 22.3064 16.3667 22.2947 16.3337 22.2841C16.3337 22.2691 16.3324 22.2634 16.334 22.2589C16.3354 22.2549 16.3395 22.2494 16.3432 22.2486C16.4071 22.2344 16.4713 22.2214 16.5352 22.2067C16.5585 22.2014 16.5809 22.192 16.6124 22.1816C16.6506 22.3774 16.6087 22.5659 16.6335 22.7469C16.6627 22.7619 16.6846 22.7567 16.6845 22.732C16.684 22.6766 16.7374 22.6609 16.7599 22.6194C16.6576 22.5409 16.6317 22.4375 16.6737 22.3194C16.7037 22.2347 16.7701 22.1878 16.8599 22.1824C16.977 22.1752 17.032 22.2552 17.0792 22.3603C17.2273 22.1395 17.3379 22.1272 17.5129 22.3039C17.5192 22.282 17.5248 22.2661 17.5282 22.2499C17.5321 22.2309 17.534 22.2116 17.5362 22.1959C17.6574 22.1505 17.7367 22.2125 17.8156 22.2945C17.8379 22.2528 17.8562 22.2188 17.8818 22.1709C17.8984 22.1967 17.9135 22.2105 17.916 22.2263C17.9252 22.2853 17.9023 22.3392 17.8701 22.3847L17.8698 22.3842ZM19.7779 22.525C19.716 22.5927 19.6521 22.6584 19.5798 22.7345C19.5596 22.842 19.6317 22.9586 19.6054 23.0908C19.4934 23.0502 19.3996 22.9869 19.2945 22.9441C19.1829 22.9794 19.0893 23.0559 18.9701 23.0891C18.9538 22.9624 19.0137 22.8505 18.9987 22.7208C18.9232 22.6342 18.8335 22.5664 18.7523 22.4681C18.8482 22.4417 18.9263 22.4256 19.006 22.4189C19.0852 22.4122 19.1363 22.3761 19.1671 22.3005C19.1976 22.2256 19.239 22.1553 19.2813 22.0717C19.3693 22.17 19.3951 22.288 19.4693 22.3945C19.5732 22.4147 19.6877 22.437 19.8138 22.4616C19.8001 22.4864 19.7926 22.5091 19.7777 22.5252L19.7779 22.525ZM19.7804 20.08C19.6265 20.2591 19.4287 20.3586 19.1979 20.3922C19.102 20.4061 19.0043 20.4114 18.9073 20.4133C18.7284 20.4166 18.5492 20.4142 18.3667 20.4142C18.3579 20.4384 18.3456 20.4569 18.3456 20.4752C18.3446 20.7877 18.3448 21.1 18.3457 21.4125C18.3457 21.4377 18.3523 21.4628 18.357 21.4955C18.3887 21.5078 18.4202 21.528 18.4534 21.5313C18.5856 21.5444 18.7184 21.553 18.851 21.5619C18.9065 21.5656 18.9623 21.5655 19.0226 21.5672C19.0254 21.6005 19.0273 21.6242 19.0299 21.6558C18.9993 21.6619 18.9757 21.6708 18.9521 21.6709C18.3631 21.6716 17.7742 21.6714 17.1851 21.6709C17.1701 21.6709 17.1552 21.6661 17.1295 21.6617C17.1259 21.6364 17.122 21.6095 17.1174 21.5781C17.2246 21.5499 17.3274 21.568 17.4281 21.5578C17.529 21.5477 17.6327 21.5508 17.7217 21.5002C17.7513 21.448 17.7446 21.3958 17.7446 21.3452C17.7451 20.6127 17.7452 19.8802 17.7446 19.1477C17.7446 19.0975 17.7379 19.0474 17.7345 19.0003C17.6718 18.9605 17.6118 18.9509 17.5504 18.9472C17.4482 18.9409 17.3459 18.9356 17.2435 18.9299C17.2129 18.9281 17.1812 18.9299 17.1523 18.9219C17.1379 18.9178 17.1201 18.8953 17.1196 18.8805C17.119 18.8649 17.1337 18.84 17.1477 18.8344C17.1702 18.8253 17.1977 18.8272 17.2232 18.8272C17.7763 18.827 18.3295 18.8256 18.8827 18.8281C19.0474 18.8289 19.2085 18.8592 19.364 18.9161C19.4856 18.9606 19.5956 19.0249 19.6912 19.1124C19.8601 19.267 19.9376 19.462 19.936 19.688C19.9351 19.837 19.8774 19.967 19.7807 20.0797L19.7804 20.08ZM22.197 20.4999C22.1288 20.5681 22.0582 20.6342 21.9902 20.6995C22.007 20.8245 22.0224 20.9395 22.0396 21.067C21.9127 21.0331 21.8206 20.9553 21.7101 20.9202C21.5987 20.9533 21.5076 21.0334 21.3915 21.0631C21.3727 20.9353 21.4307 20.8236 21.4221 20.7064C21.3562 20.61 21.2471 20.5527 21.1793 20.4392C21.2345 20.4277 21.2773 20.4181 21.3204 20.41C21.3604 20.4025 21.4006 20.3933 21.4412 20.3905C21.5101 20.3855 21.5512 20.3511 21.5795 20.2886C21.6146 20.2108 21.6485 20.1313 21.706 20.0502C21.7592 20.1052 21.779 20.1675 21.8079 20.2234C21.8842 20.3706 21.8562 20.3775 22.0421 20.3991C22.1026 20.4061 22.1621 20.4216 22.234 20.4356C22.2199 20.4608 22.2124 20.4844 22.1971 20.4999H22.197ZM23.414 18.3427C23.4285 18.4528 23.4437 18.5681 23.4623 18.7097C23.3317 18.6461 23.2313 18.5974 23.131 18.5486C23.027 18.5989 22.9267 18.6474 22.816 18.7009C22.7898 18.5675 22.8609 18.4516 22.8376 18.3275C22.7721 18.2413 22.6737 18.1808 22.6113 18.0917C22.6221 18.0513 22.6523 18.0586 22.6749 18.0539C22.7249 18.0438 22.7754 18.0283 22.8257 18.0281C22.9282 18.0278 22.9823 17.9747 23.0192 17.8852C23.0476 17.8161 23.0781 17.7459 23.1354 17.6719C23.1817 17.7627 23.2248 17.8377 23.2587 17.9166C23.2885 17.9861 23.3359 18.017 23.4099 18.0245C23.4896 18.0327 23.5681 18.0511 23.6613 18.0675C23.5938 18.1817 23.4865 18.2406 23.414 18.3424V18.3427ZM24.1045 15.5791C24.1195 15.6877 24.1354 15.8028 24.1532 15.9309C24.0245 15.9006 23.9337 15.8188 23.8212 15.7861C23.7102 15.8199 23.6184 15.8999 23.4901 15.932C23.5077 15.8089 23.5234 15.6986 23.5406 15.5786C23.477 15.4836 23.3677 15.4189 23.2871 15.3066C23.3501 15.2931 23.3931 15.2833 23.4363 15.275C23.4765 15.2674 23.5168 15.2589 23.5576 15.2555C23.6198 15.2503 23.6615 15.2228 23.6865 15.1638C23.7124 15.1025 23.744 15.0438 23.7745 14.9845C23.7852 14.9636 23.8001 14.9447 23.8206 14.9138C23.8398 14.9406 23.8527 14.9549 23.8612 14.9714C23.8917 15.0305 23.9246 15.0889 23.9493 15.1505C23.9777 15.2214 24.0279 15.25 24.1012 15.258C24.1773 15.2663 24.2521 15.2845 24.3274 15.2992C24.3304 15.2999 24.3323 15.307 24.3401 15.3209C24.2845 15.42 24.1726 15.4752 24.1042 15.5791H24.1045ZM26.451 11.2286C26.4421 11.2995 26.4282 11.37 26.4149 11.4403C26.4123 11.4547 26.4021 11.4677 26.3906 11.4911C26.3343 11.4958 26.2737 11.5005 26.2131 11.5059C26.0495 11.5206 25.8873 11.5444 25.732 11.5997C25.6748 11.62 25.6187 11.6481 25.5685 11.6822C25.511 11.7213 25.4746 11.7766 25.499 11.8614C25.6854 11.9128 25.8926 11.8763 26.0759 11.9644C26.0149 12.0927 25.7884 12.3466 25.4009 12.7197C24.9345 13.1688 24.4331 13.5714 23.8557 13.8795C23.8218 13.8567 23.7926 13.8372 23.7634 13.8175C23.5899 13.7013 23.396 13.6378 23.1932 13.6002C22.8781 13.5416 22.561 13.5483 22.2442 13.5834C22.1323 13.5958 22.0212 13.615 21.9099 13.6328C21.8862 13.6366 21.8637 13.6481 21.8182 13.6639C21.8735 13.6897 21.9073 13.708 21.9427 13.7216C22.2156 13.8259 22.4852 13.9377 22.7404 14.0806C22.8563 14.1456 22.9677 14.2189 23.0788 14.292C23.1251 14.3225 23.1652 14.3625 23.214 14.4033C23.1968 14.4399 23.1876 14.4752 23.1667 14.5009C23.1056 14.5764 23.0446 14.6531 22.9748 14.7202C22.7851 14.9025 22.5651 15.0425 22.3356 15.1666C22.3177 15.1589 22.3017 15.1556 22.2904 15.1464C22.0698 14.9661 21.8112 14.8753 21.5349 14.8274C21.1929 14.768 20.8512 14.7861 20.5099 14.8359C20.4862 14.8394 20.464 14.8525 20.421 14.8686C20.5851 14.9386 20.7307 14.9989 20.8749 15.063C21.0152 15.1253 21.1551 15.1891 21.2931 15.2564C21.434 15.3252 21.5804 15.3847 21.717 15.4783C21.6932 15.5061 21.6787 15.5267 21.6607 15.5436C21.1471 16.0295 20.6345 16.5164 20.0987 16.9781C20.0715 17.0016 20.0431 17.0234 20.0165 17.0477C19.9581 17.1011 19.8929 17.1284 19.8112 17.1377C19.5915 17.1627 19.3793 17.2214 19.1787 17.317C19.0338 17.3861 18.9031 17.4745 18.7974 17.5967C18.781 17.6158 18.769 17.6388 18.7559 17.6606C18.7542 17.6634 18.7587 17.67 18.7642 17.6858C18.9684 17.7055 19.187 17.6809 19.3902 17.7953C19.3679 17.8127 19.3545 17.8291 19.3373 17.8356C19.0696 17.9366 18.8387 18.0956 18.6267 18.2839C18.5827 18.323 18.5387 18.3492 18.477 18.3488C18.1901 18.3466 17.9032 18.3474 17.6163 18.3464C17.6017 18.3464 17.5871 18.3395 17.5698 18.3352C17.5512 18.2852 17.5832 18.2469 17.5998 18.2072C17.8465 17.6161 18.1229 17.0389 18.426 16.4747C18.9388 15.5203 19.5215 14.6117 20.206 13.7705C20.7871 13.0564 21.4306 12.4058 22.1696 11.8534C22.8685 11.3311 23.6256 10.9203 24.4615 10.6611C24.5245 10.6416 24.5877 10.6228 24.651 10.6034C24.6438 10.5627 24.614 10.5709 24.5909 10.5722C24.3848 10.5824 24.1857 10.6297 23.9898 10.6909C23.6613 10.7938 23.3488 10.9347 23.0452 11.0956C22.3226 11.4786 21.6635 11.9556 21.0256 12.4639C20.5384 12.852 20.1042 13.2922 19.7123 13.7753C19.3826 14.1819 19.0846 14.6105 18.8117 15.0567C18.2109 16.0389 17.7299 17.0783 17.3346 18.1583C17.3135 18.2158 17.2913 18.2728 17.2645 18.3436C17.0792 18.3509 16.9074 18.3492 16.7396 18.3452C16.6715 17.9906 16.827 16.5795 16.9826 16.292C17.0871 16.4219 17.1881 16.5525 17.3399 16.625C17.3615 16.6353 17.3876 16.6366 17.4237 16.6447C17.3451 15.9264 17.474 15.2497 17.7454 14.5966C17.8749 14.2847 18.0463 13.9789 18.1573 13.8569C18.1826 13.9038 18.2065 13.9484 18.2307 13.9931C18.3045 14.1289 18.389 14.2567 18.5043 14.3614C18.5717 14.4225 18.5871 14.4297 18.6867 14.453C18.6718 14.3283 18.6556 14.2077 18.6435 14.0866C18.6159 13.8064 18.592 13.5258 18.5634 13.2456C18.5507 13.1213 18.5829 13.0127 18.6588 12.9155C18.8198 12.7099 18.9809 12.5044 19.1426 12.2992C19.1515 12.2878 19.166 12.2808 19.1863 12.2653C19.2373 12.3042 19.2877 12.3453 19.341 12.3827C19.3952 12.4208 19.4515 12.4561 19.5338 12.4594C19.5323 12.4303 19.5335 12.4074 19.5293 12.3853C19.5096 12.2849 19.4863 12.1852 19.4685 12.0844C19.4574 12.0219 19.4676 11.9638 19.5151 11.9138C19.7129 11.7056 19.9132 11.5005 20.1423 11.3258C20.162 11.3108 20.1848 11.3002 20.217 11.2809C20.2315 11.3275 20.2434 11.3645 20.2546 11.4017C20.296 11.5388 20.3318 11.6777 20.3806 11.8119C20.4045 11.8775 20.4452 11.9408 20.4915 11.9939C20.5779 12.0933 20.677 12.0852 20.7412 11.9727C20.7838 11.898 20.8181 11.8155 20.8401 11.7324C20.8965 11.5197 20.9421 11.3042 20.9954 11.0908C21.0288 10.9569 21.0671 10.8241 21.1049 10.6913C21.1374 10.5775 21.2068 10.4989 21.3121 10.4383C21.9904 10.0481 22.6996 9.73438 23.4637 9.55376C23.8852 9.45407 24.312 9.4097 24.7445 9.44751C25.2642 9.49298 25.7276 9.67439 26.124 10.0219C26.2943 10.1711 26.3921 10.3539 26.4363 10.5714C26.4807 10.7899 26.4784 11.0092 26.4507 11.2289L26.451 11.2286Z" fill="white"/>
<path d="M19.2568 19.222C19.1974 19.0948 19.1012 19.0058 18.9655 18.9673C18.7702 18.9117 18.5721 18.9212 18.3732 18.9455C18.3604 18.9755 18.354 18.9845 18.3529 18.9942C18.349 19.0298 18.3446 19.0655 18.3446 19.1012C18.3455 19.4905 18.3471 19.8795 18.3488 20.2687C18.3488 20.2734 18.351 20.2786 18.3535 20.2826C18.3562 20.2869 18.3605 20.29 18.3776 20.307C18.5523 20.3051 18.7404 20.3176 18.9285 20.2959C18.9487 20.2936 18.9682 20.2862 18.988 20.2812C19.1587 20.2387 19.2635 20.1308 19.3032 19.9605C19.3504 19.7578 19.3524 19.5544 19.3032 19.3519C19.2924 19.3075 19.276 19.2637 19.2566 19.2222L19.2568 19.222Z" fill="white"/>
<path d="M17.3459 22.5931C17.3089 22.5785 17.2688 22.5723 17.2181 22.5593C17.2102 22.5987 17.2041 22.6181 17.2028 22.6378C17.2016 22.6578 17.2031 22.6784 17.2069 22.6982C17.2163 22.7484 17.2531 22.7806 17.3002 22.7823C17.3483 22.784 17.3923 22.7509 17.4005 22.7067C17.4097 22.6568 17.3906 22.6106 17.3461 22.5931H17.3459Z" fill="white"/>
<path d="M17.2634 22.3957C17.2993 22.4111 17.3385 22.419 17.389 22.4339C17.3921 22.3862 17.4002 22.3517 17.3949 22.3192C17.3871 22.2711 17.3401 22.245 17.2913 22.2534C17.2535 22.26 17.2219 22.2895 17.2193 22.3222C17.2165 22.3567 17.2338 22.3832 17.2632 22.3957H17.2634Z" fill="white"/>
<path d="M16.8722 22.27C16.8614 22.2697 16.8445 22.2827 16.84 22.2938C16.8106 22.3663 16.8123 22.4403 16.8389 22.5133C16.8431 22.525 16.8589 22.5389 16.8702 22.5397C16.8808 22.5405 16.8992 22.5271 16.9023 22.5164C16.9122 22.4832 16.9164 22.4483 16.9233 22.4121C16.9172 22.3736 16.9128 22.3338 16.9033 22.2952C16.9006 22.2844 16.8831 22.2705 16.8722 22.2702V22.27Z" fill="white"/>
<path d="M16.8219 22.6439C16.8425 22.6884 16.8281 22.7371 16.8647 22.7692C16.9164 22.734 16.9152 22.6915 16.9036 22.6296C16.8702 22.6354 16.8477 22.6393 16.8219 22.6439Z" fill="white"/>
<path d="M17.0953 22.4911C17.096 22.5049 17.1007 22.5183 17.1038 22.5319C17.1108 22.5281 17.1236 22.5245 17.1236 22.5206C17.1241 22.5069 17.1202 22.493 17.1175 22.476C17.1069 22.483 17.095 22.4874 17.0953 22.4911Z" fill="white"/>
<path d="M11.7913 22.4442C11.8691 22.4042 11.8491 22.3235 11.8675 22.2588C11.868 22.2571 11.86 22.2528 11.8533 22.2477H11.7718C11.755 22.3223 11.7568 22.3871 11.7771 22.4422C11.7818 22.443 11.7877 22.446 11.7911 22.4442H11.7913Z" fill="white"/>
<path d="M12.3846 22.7757C12.4349 22.7835 12.4797 22.7591 12.4952 22.7177C12.5097 22.6788 12.4869 22.6355 12.4311 22.6136C12.3707 22.5899 12.3074 22.5732 12.2314 22.549C12.2433 22.6538 12.2543 22.6868 12.2805 22.7208C12.3071 22.7554 12.3439 22.7694 12.3846 22.7757Z" fill="white"/>
<path d="M12.2801 22.3637C12.3399 22.4011 12.4071 22.4182 12.4909 22.4223C12.491 22.354 12.467 22.3115 12.4277 22.2768C12.3918 22.2451 12.3502 22.2309 12.3024 22.2434C12.2715 22.2515 12.2432 22.2697 12.2451 22.3032C12.2463 22.3245 12.2621 22.3525 12.2801 22.3637Z" fill="white"/>
</g>
<defs>
<clipPath id="clip0_7213_1161">
<rect width="28.2258" height="32" fill="white" transform="translate(0.657715)"/>
</clipPath>
</defs>
</svg>
