<svg width="321" height="32" viewBox="0 0 321 32" fill="none" xmlns="http://www.w3.org/2000/svg">
<g clip-path="url(#clip0_7213_1173)">
<path d="M312.453 1.37604V16.2068C312.292 16.0238 312.191 15.9156 312.098 15.8014C308.257 11.1092 304.415 6.41803 300.581 1.71978C300.382 1.47512 300.188 1.36593 299.865 1.36795C297.878 1.38311 295.889 1.37502 293.901 1.37705C293.757 1.37705 293.612 1.39525 293.476 1.40434V31.08H301.877V16.2513C302.126 16.5495 302.299 16.7548 302.47 16.962C306.232 21.545 309.996 26.126 313.749 30.715C313.984 31.0032 314.221 31.1194 314.597 31.1154C316.686 31.0952 318.776 31.1063 320.864 31.1063V1.37604H312.453Z" fill="white"/>
<path d="M204.463 2.76718C200.749 0.843196 196.794 0.455972 192.724 1.2749C183.808 3.06846 178.707 11.1213 180.706 19.7878C182.165 26.1158 186.433 29.7586 192.668 31.1983C193.53 31.3974 194.417 31.4783 195.293 31.6138C196.068 31.6138 196.843 31.6138 197.618 31.6138C198.096 31.5471 198.575 31.4824 199.052 31.4126C202.805 30.8697 206.094 29.3703 208.68 26.5506C211.898 23.0433 213.08 18.8486 212.479 14.1776C211.813 8.99712 209.096 5.16736 204.464 2.76718H204.463ZM201.198 22.466C198.685 24.3748 195.861 24.5679 193.038 23.2769C190.276 22.0141 189.052 19.6432 188.875 16.6789C188.862 16.4615 188.873 16.2421 188.873 16.0238C188.992 13.116 190.089 10.7371 192.747 9.33986C197.07 7.06707 203.469 9.03251 204.004 15.4273C204.238 18.2288 203.502 20.7169 201.198 22.467V22.466Z" fill="white"/>
<path d="M148.335 3.297C144.499 0.927154 140.268 0.429729 135.877 1.22743C132.594 1.82393 129.697 3.24746 127.395 5.68403C123.668 9.62906 122.435 14.3728 123.598 19.6018C125.028 26.0309 129.29 29.7323 135.601 31.2003C136.443 31.3965 137.311 31.4784 138.168 31.6128H140.594C141.235 31.5158 141.877 31.4268 142.516 31.3216C149.545 30.1731 154.974 24.8824 155.486 17.5687C155.914 11.4428 153.616 6.55857 148.336 3.29599L148.335 3.297ZM141.86 23.6651C137.786 24.9491 133.59 23.0535 132.303 19.1833C131.222 15.9338 131.603 12.83 134.212 10.3894C136.484 8.26417 139.264 7.94267 142.135 8.92842C144.903 9.87878 146.399 11.9767 146.867 14.8298C146.943 15.2938 146.962 15.766 147.008 16.2351C146.982 19.8384 145.035 22.6642 141.86 23.6651Z" fill="white"/>
<path d="M226.865 9.7433C230.073 7.62722 234.767 8.10948 237.51 10.7998C237.904 11.186 238.292 11.5783 238.693 11.9777C240.572 10.2417 242.422 8.53209 244.275 6.82042C242.917 5.05416 241.31 3.66602 239.36 2.7015C235.646 0.864465 231.729 0.507573 227.696 1.22843C224.411 1.81584 221.504 3.21813 219.19 5.65066C215.426 9.60883 214.249 14.3859 215.391 19.6241C216.791 26.0491 221.04 29.7475 227.345 31.2023C228.207 31.4015 229.095 31.4794 229.971 31.6138C230.746 31.6138 231.521 31.6138 232.296 31.6138C232.809 31.5461 233.322 31.4814 233.834 31.4116C237.178 30.9587 240.264 29.8556 242.999 27.8366C243.272 27.6354 243.376 27.4231 243.375 27.0834C243.364 23.1566 243.368 19.2287 243.367 15.3019C243.367 15.124 243.349 14.946 243.341 14.7752H235.432V15.3565C235.432 17.8174 235.419 20.2782 235.444 22.739C235.448 23.1556 235.302 23.3224 234.933 23.4559C233.794 23.8694 232.624 24.0342 231.417 24.0321C226.875 24.022 223.69 20.9546 223.597 16.4141C223.54 13.6509 224.482 11.3154 226.867 9.7433H226.865Z" fill="white"/>
<path d="M112.26 15.3564C112.096 15.1674 111.995 15.0572 111.901 14.9419C108.071 10.2629 104.238 5.58589 100.415 0.89978C100.192 0.625792 99.9692 0.504469 99.6113 0.507502C97.6741 0.523678 95.736 0.51559 93.7989 0.51559H93.2924V30.2479H101.696V15.4201C101.827 15.5698 101.884 15.6304 101.938 15.6951C105.818 20.4207 109.699 25.1452 113.572 29.8778C113.804 30.1619 114.033 30.2954 114.415 30.2913C116.318 30.2691 118.222 30.2812 120.126 30.2812H120.656V0.557042H112.26V15.3575V15.3564Z" fill="white"/>
<path d="M287.301 21.6107C284.358 15.0228 281.413 8.435 278.481 1.84311C278.322 1.48621 278.137 1.35984 277.737 1.36489C275.479 1.38814 273.222 1.38107 270.964 1.36995C270.674 1.36894 270.524 1.44982 270.402 1.72583C266.103 11.3923 261.795 21.0556 257.49 30.719C257.441 30.8313 257.414 30.9536 257.366 31.1073C260.253 31.1073 263.083 31.1133 265.912 31.0911C266.061 31.0901 266.276 30.8859 266.344 30.7261C267.06 29.0387 267.761 27.3452 268.446 25.6447C268.575 25.3232 268.724 25.1796 269.098 25.1816C272.602 25.1978 276.106 25.1958 279.61 25.1847C279.946 25.1837 280.112 25.2797 280.241 25.6032C280.917 27.2896 281.633 28.9588 282.307 30.6452C282.447 30.9961 282.609 31.1194 282.994 31.1164C285.589 31.0972 288.184 31.1063 290.778 31.1063H291.53C291.428 30.8656 291.354 30.6816 291.274 30.5017C289.949 27.5373 288.624 24.574 287.299 21.6097L287.301 21.6107ZM271.57 18.2227C272.5 15.9762 273.412 13.7722 274.372 11.4509C275.336 13.7793 276.245 15.9773 277.173 18.2227H271.569H271.57Z" fill="white"/>
<path d="M73.9221 20.9101C71.2277 24.0513 67.1634 24.1827 64.3629 22.7279C61.713 21.3519 60.6039 19.0124 60.5483 16.135C60.5088 14.0796 61.1063 12.2071 62.5703 10.6936C65.3729 7.79502 70.4806 7.76873 73.3933 10.634C73.8675 11.1001 74.3083 11.6005 74.7784 12.099C76.6205 10.3974 78.4353 8.72112 80.243 7.04989C79.141 5.35541 77.0553 3.61442 75.0585 2.6772C71.7615 1.13033 68.3119 0.826013 64.7511 1.36792C57.0198 2.54476 51.6906 9.12957 52.182 16.9307C52.4833 21.7128 54.476 25.6204 58.508 28.2683C63.4004 31.4803 68.683 31.7826 74.1162 29.8212C76.6509 28.9063 78.6557 27.2391 80.2552 25.029C78.4161 23.3325 76.5922 21.6481 74.7542 19.9526C74.4509 20.3004 74.184 20.6037 73.9211 20.9101H73.9221Z" fill="white"/>
<path d="M23.9076 30.0548H32.3719V7.62215H51.2741V0.38623H23.9076V30.0538V30.0548Z" fill="white"/>
<path d="M82.4926 13.6731H72.0244V11.0152H64.2759V21.7169H72.0395V18.798H82.532V30.0467H90.9761V0.38623H82.4926V13.6731Z" fill="white"/>
<path d="M166.295 1.41138H157.825V31.0759H180.107V23.7965H166.295V1.41138Z" fill="white"/>
<path d="M41.2022 22.28H49.6908V17.0479H41.1931V14.945H50.8232V9.6189H35.0188V29.9668H51.1629V24.6175H41.2012V22.28H41.2022Z" fill="white"/>
<path d="M247.206 31.0719H255.65V1.40332H247.206V31.0729V31.0719Z" fill="white"/>
<path d="M13.0927 3.41925H10.6066V0.746094H8.28528V8.26914H10.6309V5.51511H13.117V8.27319H15.4342V0.749127H13.0927V3.42026V3.41925Z" fill="white"/>
<path d="M19.08 5.36755H22.2718V3.50726H19.0769V2.61149H22.6954V0.755249H16.7233V8.27122H22.8572V6.40486H19.081V5.36654L19.08 5.36755Z" fill="white"/>
<path d="M0.993774 2.69847H3.20691V8.26114H5.57878V2.67219H7.79697V0.747192H0.993774V2.69847Z" fill="white"/>
</g>
<defs>
<clipPath id="clip0_7213_1173">
<rect width="320.091" height="32" fill="white" transform="translate(0.883545)"/>
</clipPath>
</defs>
</svg>
