<svg width="126" height="52" viewBox="0 0 126 52" fill="none" xmlns="http://www.w3.org/2000/svg">
<g clip-path="url(#clip0_7213_2295)">
<path d="M84.3868 22.1649C82.367 20.6612 80.0925 19.6993 77.6891 19.026C75.885 18.5205 74.0551 18.1029 72.2581 17.5727C70.5232 17.0601 68.8599 16.3422 67.5626 15.0331C65.6307 13.0848 65.2811 10.6802 65.8887 8.1289C66.5139 5.50608 68.2511 4.05509 70.9502 3.87093C72.0669 3.79468 73.2352 3.84278 74.3226 4.08676C78.1852 4.9536 80.9969 7.11778 82.3071 10.9746C82.7869 12.3869 82.7892 13.8508 82.6766 15.3979C82.7963 15.3229 82.8385 15.3123 82.8549 15.2853C84.4244 12.8807 85.9962 10.4772 87.5434 8.05852C87.6231 7.93418 87.5598 7.59167 87.4425 7.49196C86.8044 6.94887 86.1721 6.37644 85.459 5.94596C79.5002 2.35777 73.193 1.9613 66.7696 4.32605C63.0689 5.68907 60.7416 8.42215 60.3721 12.5347C60.0648 15.9657 61.2472 18.8383 63.714 21.1714C65.9978 23.3309 68.8165 24.525 71.7971 25.3719C73.993 25.9959 76.2111 26.5484 78.3882 27.2335C79.8133 27.6815 81.1341 28.3971 82.0714 29.6252C83.2643 31.1876 83.3476 32.9858 83.0309 34.8251C82.5722 37.4878 81.1693 39.3951 78.4914 40.1751C76.7483 40.683 74.9841 40.6302 73.2164 40.2584C68.3649 39.2355 63.9263 35.1793 64.3087 29.2686C64.3169 29.1384 64.2782 29.0047 64.2407 28.6997C62.548 31.3952 60.9551 33.9312 59.3505 36.4872C61.6284 38.6221 64.2829 39.883 67.1814 40.6724C70.1948 41.4935 73.268 41.6765 76.3636 41.3446C79.2855 41.0314 81.9975 40.1293 84.3646 38.3065C89.3181 34.4919 90.1334 26.444 84.3857 22.1649H84.3868Z" fill="white"/>
<path d="M47.061 3.67627C47.0493 3.74196 47.0364 3.80764 47.0247 3.87333C47.21 3.93081 47.393 4.01292 47.583 4.04224C49.1091 4.27919 50.1096 5.14955 50.7231 6.54659C51.4081 8.1055 51.5665 9.75824 51.5759 11.418C51.6064 16.8502 51.6111 22.2823 51.5688 27.7144C51.5536 29.7425 51.1466 31.7214 50.1824 33.5325C48.1249 37.3987 44.8253 39.3576 40.504 39.4819C37.4073 39.5699 34.7622 38.4344 32.842 35.9078C31.296 33.8738 30.6672 31.4962 30.5617 29.0012C30.4479 26.3303 30.4784 23.6524 30.4702 20.9768C30.4549 16.347 30.4467 11.716 30.4608 7.08499C30.4655 5.62579 31.032 4.91495 32.4373 4.48564C32.9018 4.3437 33.3851 4.26394 33.8578 4.14899C34.0689 4.09737 34.2766 4.02934 34.5522 3.9484C34.0396 3.59533 19.6 3.61645 19.0957 3.96952C19.4382 4.04342 19.7091 4.10793 19.9824 4.16189C22.1759 4.58651 23.2105 5.34896 23.1706 7.34891C23.0721 12.2884 23.1331 17.2326 23.1659 22.1744C23.1824 24.5943 23.1132 27.0318 23.3736 29.4305C23.8521 33.8363 25.9858 37.2919 29.9494 39.4373C33.2068 41.2015 36.734 41.727 40.3961 41.3751C43.5866 41.069 46.4241 39.9265 48.7267 37.6391C51.3905 34.9929 52.5025 31.6815 52.7172 28.0206C52.7946 26.6975 52.7582 25.3661 52.7606 24.0383C52.7653 20.4841 52.7313 16.9299 52.7747 13.3769C52.7981 11.4673 52.8544 9.54945 53.0656 7.65507C53.2849 5.68326 54.221 4.21585 56.4379 4.00705C56.5623 3.99532 56.6772 3.89093 56.7969 3.82993C56.784 3.77832 56.7699 3.72788 56.757 3.67627H47.061Z" fill="white"/>
<path d="M17.2634 3.73137C16.3262 3.71964 15.389 3.71143 14.4518 3.71143C10.5258 3.71143 6.59975 3.71377 2.67374 3.72198C2.51891 3.72198 2.36407 3.7994 2.20924 3.84046C2.2151 3.89911 2.22097 3.95775 2.228 4.01758C2.48841 4.06332 2.75233 4.09265 3.00687 4.15716C3.62973 4.31552 4.26432 4.44689 4.86372 4.66859C5.89244 5.04864 6.3851 5.81226 6.37688 6.92778C6.35929 9.44737 6.36985 11.9681 6.36985 14.4889C6.37102 20.9756 6.39096 27.461 6.36867 33.9465C6.35812 36.9541 6.36867 39.9663 6.19038 42.9657C5.95695 46.9022 4.04614 49.8277 0.468513 51.5989C0.30664 51.6787 0.156497 51.7795 0.000488281 51.871C0.0180832 51.9144 0.0368511 51.9578 0.054446 52.0001C0.194032 51.9731 0.340657 51.9649 0.472032 51.9156C1.6767 51.4628 2.91303 51.0757 4.07547 50.5326C7.8443 48.7708 11.1134 46.3451 13.6659 43.0231C13.8277 42.8132 13.9509 42.5023 13.9404 42.2443C13.8899 40.9962 13.7222 39.7517 13.7151 38.5048C13.6776 32.1542 13.6753 25.8048 13.6659 19.4542C13.66 15.3311 13.6647 11.208 13.6647 7.08496C13.6647 5.76182 14.1233 5.04747 15.3644 4.58179C15.9075 4.37769 16.4928 4.28737 17.0593 4.14309C17.2658 4.0903 17.4722 4.03517 17.6775 3.98121C17.6728 3.92139 17.667 3.8604 17.6623 3.80057C17.5285 3.77711 17.396 3.73371 17.2623 3.73254L17.2634 3.73137Z" fill="white"/>
<path d="M110.167 35.4819C109.576 34.9036 109.027 34.323 108.43 33.7951C107.952 33.374 107.778 32.9001 107.786 32.2609C107.827 29.0574 107.833 25.854 107.837 22.6505C107.842 18.9591 107.831 15.2665 107.835 11.5751C107.835 11.4074 107.861 11.2103 107.948 11.0742C109.366 8.8866 111.899 7.8661 114.414 8.6567C115.359 8.95346 116.33 9.208 117.307 9.34759C118.278 9.486 119.202 9.22677 120.007 8.60626C120.225 8.43852 120.502 8.32474 120.771 8.24849C121.377 8.07841 121.852 7.44265 121.778 6.84325C121.703 6.23564 121.14 5.70544 120.555 5.69254C119.872 5.67612 119.269 6.16408 119.272 6.86553C119.273 7.27374 119.502 7.68077 119.641 8.12768C118.419 8.63676 117.197 8.31887 115.957 7.78633C114.888 7.32769 113.801 6.81158 112.671 6.61686C111.129 6.35059 109.731 7.02858 108.42 7.81449C108.249 7.91771 108.08 8.02563 107.887 8.14527V4.71544C107.924 4.69784 107.963 4.68025 108 4.66265C108.269 5.00047 108.538 5.3383 108.861 5.74533C109.157 4.98874 109.311 4.26853 109.261 3.50491C109.207 2.67912 108.782 2.06564 108.045 1.78295C107.195 1.45686 106.464 1.10731 106.449 0C105.977 0.787079 105.691 1.56829 105.642 2.43162C105.588 3.37588 105.907 3.88496 106.78 4.25328C106.901 4.30372 107.074 4.43626 107.075 4.53245C107.095 5.72773 107.088 6.92418 107.088 8.19336C106.739 7.97519 106.499 7.80862 106.246 7.66669C104.707 6.81158 103.118 6.23564 101.32 6.75879C101.185 6.7975 100.998 6.65674 100.825 6.59575C100.526 7.06846 100.534 7.0884 99.8164 7.38634C99.0246 7.71478 98.2329 8.05847 97.4118 8.29307C96.6822 8.50186 95.9315 8.41037 95.2066 8.09718C95.2558 8.01507 95.2711 7.97753 95.2969 7.95055C95.8083 7.39221 95.901 6.83152 95.569 6.30954C95.2453 5.80046 94.6951 5.5729 94.1602 5.72538C93.6254 5.87787 93.2148 6.44208 93.2277 7.00629C93.2418 7.6315 93.6418 8.07606 94.3338 8.26257C94.4957 8.30597 94.6717 8.37635 94.7913 8.48661C95.4259 9.07545 96.1907 9.40272 97.0306 9.35345C98.0827 9.29129 99.1267 9.08836 100.169 8.94643C100.172 8.90772 100.169 9.02267 100.159 9.13762C100.005 10.8924 100.548 12.3997 101.738 13.6959C103.137 15.2196 105.007 15.9199 106.852 16.6671C106.875 16.6765 106.919 16.6354 107.007 16.5897V14.3516C107.043 14.3516 107.078 14.3516 107.115 14.3516C107.115 14.5615 107.115 14.7703 107.115 14.9803C107.107 20.8992 107.1 26.8182 107.077 32.7371C107.077 32.9588 106.963 33.2333 106.809 33.3904C106.128 34.0825 105.413 34.7417 104.659 35.4631C105.476 36.2479 106.203 36.9458 107.115 37.8197C106.287 38.5493 105.521 39.2237 104.768 39.8877C105.618 40.7533 106.391 41.5533 107.184 42.3334C107.275 42.4237 107.544 42.4894 107.607 42.4319C108.467 41.6436 109.306 40.8319 110.183 39.9944C109.347 39.2073 108.626 38.5293 107.819 37.7716C108.657 36.9564 109.392 36.2408 110.172 35.4819H110.167ZM107.097 12.5463C107.032 12.944 107.087 13.3616 107.087 13.9633C105.59 13.0167 104.131 12.1898 102.783 11.2103C101.864 10.5429 101.255 9.57163 101.022 8.42444C102.789 8.19454 104.354 8.52649 105.712 9.67134C106.612 10.4291 107.313 11.2478 107.097 12.5463ZM105.719 35.4901C106.283 34.9341 106.844 34.3816 107.396 33.8385C107.978 34.418 108.538 34.9752 109.101 35.5359C108.552 36.0637 107.993 36.6009 107.39 37.1804C106.857 36.6408 106.312 36.0895 105.72 35.4901H105.719ZM109.023 39.9745C108.525 40.4378 107.946 40.975 107.354 41.5263C106.89 41.0419 106.352 40.4835 105.773 39.8806C106.308 39.3575 106.861 38.8144 107.443 38.2455C107.958 38.8097 108.491 39.3915 109.023 39.9733V39.9745Z" fill="white"/>
<path d="M106.915 31.7811C106.954 31.699 106.995 31.6509 106.999 31.6005C107.087 29.8809 107.214 28.1483 105.541 26.9836C105.51 26.9625 105.488 26.9261 105.464 26.8956C104.423 25.603 103.61 24.2047 103.435 22.4992C104.022 24.1977 105.131 25.3461 106.989 25.9373C106.989 24.9379 107.012 24.064 106.968 23.1924C106.96 23.0388 106.698 22.8429 106.512 22.7643C105.821 22.4746 105.23 22.0828 104.813 21.4142C105.521 21.6934 106.193 21.9596 106.992 22.2752C106.992 21.4588 106.944 20.7972 107.006 20.1462C107.069 19.4823 106.823 19.2266 106.18 19.094C105.582 18.9697 104.996 18.7046 104.451 18.416C103.535 17.9327 103.06 17.1844 103.3 16.1017C103.305 16.0806 103.258 16.0466 103.227 16.009C103.17 16.0407 103.1 16.0548 103.079 16.0947C102.524 17.1797 102.263 18.28 102.843 19.4553C102.947 19.6664 102.995 20.0078 102.897 20.2013C101.951 22.0593 102.071 23.9396 102.734 25.8293C103.541 28.1319 105.043 29.9724 106.71 31.6955C106.755 31.7412 106.838 31.7494 106.915 31.7799V31.7811Z" fill="white"/>
<path d="M124.964 17.8787C123.632 18.5086 122.305 18.5109 121.058 17.7121C119.668 16.8218 118.278 16.7315 116.787 17.4188C115.592 17.9701 115.794 17.7672 116.231 18.81C117.634 22.153 121.149 23.1689 124.018 21.0575C125.185 20.1988 125.757 18.9684 126 17.4224C125.584 17.6053 125.269 17.7332 124.963 17.8787H124.964Z" fill="white"/>
<path d="M98.8112 17.7063C97.2229 16.9016 95.6535 16.5497 94.0113 17.6723C92.8653 18.4559 91.5644 18.5286 90.26 18.0136C89.8683 17.8588 89.4929 17.6664 89.0413 17.46C89.0413 17.7028 88.9826 17.9022 89.0507 18.0359C89.4753 18.8617 89.8061 19.7766 90.3961 20.4687C91.704 22.0018 93.4623 22.4253 95.3884 21.949C97.3731 21.4587 98.3725 19.9479 99.0188 18.1485C99.0587 18.0359 98.9296 17.7685 98.81 17.7075L98.8112 17.7063Z" fill="white"/>
<path d="M108.587 22.6376C110.002 23.0599 110.902 24.3045 110.94 25.881C110.358 24.4898 109.3 23.7966 107.955 23.2382C107.955 24.2775 107.942 25.2053 107.968 26.1308C107.971 26.2692 108.128 26.444 108.26 26.5343C109.576 27.434 110.368 28.6457 110.533 30.2469C110.535 30.2691 110.59 30.2856 110.677 30.3419C110.78 30.0686 110.891 29.8105 110.974 29.5454C111.423 28.1143 111.945 26.6997 112.287 25.244C112.589 23.9526 112.377 22.674 111.563 21.5643C110.684 20.3655 109.42 19.8447 107.943 19.4729C107.943 20.3046 107.976 21.0236 107.932 21.738C107.901 22.2564 108.073 22.4863 108.585 22.6388L108.587 22.6376Z" fill="white"/>
<path d="M107.919 14.0923C107.919 15.0389 107.935 15.8342 107.912 16.6283C107.902 17.0095 108.039 17.2171 108.383 17.4013C109.225 17.8494 110.077 18.2975 110.852 18.8488C112.88 20.2916 114.247 22.1637 114.407 24.7454C114.423 24.9847 114.428 25.2252 114.441 25.5043C114.56 25.4516 114.636 25.4433 114.654 25.407C115.599 23.4422 115.997 21.4305 114.925 19.3977C113.452 16.6072 110.855 15.2665 107.919 14.0935V14.0923Z" fill="white"/>
<path d="M109.103 30.2997C108.772 30.0158 108.426 29.7507 107.943 29.3601C107.943 29.9208 107.985 30.3067 107.936 30.6809C107.739 32.1624 108.188 33.2404 109.422 34.2327C111.776 36.1271 112.636 38.7112 112.163 41.7141C112.133 41.9111 112.12 42.1106 112.098 42.3088C112.156 42.3264 112.214 42.3428 112.272 42.3604C112.534 41.7059 112.814 41.0584 113.055 40.3968C113.815 38.2972 113.684 36.2679 112.563 34.3113C111.667 32.7489 110.459 31.4609 109.104 30.2985L109.103 30.2997Z" fill="white"/>
<path d="M93.7192 15.6818C93.7825 15.6794 93.8447 15.6759 93.9069 15.6736C93.9667 14.5076 94.0265 13.3417 94.0922 12.0525C95.0506 13.4965 95.9409 14.8396 96.8323 16.1827C96.8886 16.1451 96.9438 16.1088 97.0001 16.0712C96.0077 14.2003 95.0154 12.3305 93.9667 10.3552C93.0142 12.2355 92.1345 13.9716 91.2559 15.7076L91.4131 15.8038C92.0418 14.8865 92.6706 13.9692 93.3708 12.9475C93.4975 13.9434 93.6078 14.8126 93.7192 15.6818Z" fill="white"/>
<path d="M118.248 15.6571C118.299 15.69 118.351 15.724 118.403 15.7568C119.027 14.8536 119.652 13.9504 120.34 12.9522C120.462 13.9563 120.569 14.8243 120.675 15.6923C120.739 15.69 120.802 15.6864 120.867 15.6841C120.923 14.5217 120.98 13.3592 121.044 12.029C122.022 13.5129 122.901 14.8442 123.778 16.1744C123.839 16.1369 123.9 16.0993 123.961 16.0618C122.971 14.1979 121.98 12.3328 120.929 10.354C119.991 12.2097 119.12 13.9328 118.249 15.6571H118.248Z" fill="white"/>
<path d="M107.467 34.1975C106.071 35.1101 106.045 35.3095 107.154 36.4074C107.234 36.4872 107.324 36.5587 107.348 36.581C107.812 36.1541 108.219 35.7775 108.635 35.394C108.24 34.9893 107.851 34.5916 107.467 34.1987V34.1975Z" fill="white"/>
<path d="M106.21 39.8888C106.646 40.3568 107.024 40.7627 107.381 41.1463C107.834 40.7275 108.242 40.3486 108.664 39.9569C108.222 39.5487 107.803 39.1616 107.424 38.812C107.028 39.1639 106.61 39.5334 106.21 39.8888Z" fill="white"/>
</g>
<defs>
<clipPath id="clip0_7213_2295">
<rect width="126" height="52" fill="white" transform="translate(0.000488281)"/>
</clipPath>
</defs>
</svg>
