<svg width="200" height="52" viewBox="0 0 200 52" fill="none" xmlns="http://www.w3.org/2000/svg">
<g clip-path="url(#clip0_7213_2261)">
<path d="M0.620728 9.26926V52L12.4328 43.0647L35.2963 36.9112V0L0.620728 9.26926ZM24.2449 28.6245C24.223 32.9398 22.2409 35.9361 18.4425 36.9527C18.3645 36.9746 18.1987 37.0161 18.1938 37.0161C18.0816 37.0527 17.9646 37.0868 17.8476 37.116C14.0468 38.1376 12.0891 36.2018 12.1086 31.8865L12.2036 11.6292L16.4823 10.4858L16.3946 31.0186C16.3946 31.2722 16.4092 31.4916 16.4409 31.6842C16.592 32.6521 17.1284 32.891 17.9427 32.6716C18.05 32.6423 18.4376 32.535 18.5376 32.5082C19.3592 32.2888 19.9028 31.7524 20.0564 30.6749C20.0857 30.4774 20.1003 30.258 20.1027 30.019L20.21 9.48868V9.48136L24.3375 8.37939L24.2425 28.6245H24.2449Z" fill="white"/>
<path d="M68.7749 26.1718C68.7749 28.7074 68.2556 30.5358 67.2146 31.65C66.1735 32.7666 64.7156 33.3249 62.8384 33.3249C60.9611 33.3249 59.5032 32.7666 58.4622 31.65C57.4211 30.5334 56.9018 28.7074 56.9018 26.1718V11.4854H50.7386V26.401C50.7386 30.3067 51.804 33.3127 53.9348 35.4192C56.0656 37.5256 59.0205 38.5764 62.7993 38.5764C66.5782 38.5764 69.5331 37.5231 71.6639 35.4192C73.7947 33.3127 74.8601 30.3091 74.8601 26.401V11.4854H68.7724V26.1718H68.7749Z" fill="white"/>
<path d="M99.2888 27.6444L86.0505 11.4854H80.9502V38.1205H87.0379V21.9541L100.318 38.1205H105.377V11.4854H99.2888V27.6444Z" fill="white"/>
<path d="M117.857 11.4854H111.693V38.118H117.857V11.4854Z" fill="white"/>
<path d="M121.167 16.5076H129.688V38.1205H135.851V16.5076H144.375V11.4854H121.167V16.5076Z" fill="white"/>
<path d="M153.81 27.0105H166.175V22.215H153.81V16.432H167.811V11.4854H147.685V38.1205H168.306V33.1738H153.81V27.0105Z" fill="white"/>
<path d="M198.135 17.7632C196.892 15.7835 195.168 14.2427 192.961 13.1408C190.755 12.0363 188.205 11.4854 185.313 11.4854H173.214V38.118H185.313C188.205 38.118 190.755 37.567 192.961 36.4626C195.168 35.3582 196.892 33.8125 198.135 31.8207C199.376 29.8288 200 27.4908 200 24.8017C200 22.1126 199.378 19.7404 198.135 17.7632ZM192.676 29.1779C191.952 30.4213 190.938 31.3794 189.631 32.0498C188.324 32.7227 186.784 33.0567 185.009 33.0567H179.377V16.5442H185.009C186.784 16.5442 188.324 16.8806 189.631 17.5535C190.938 18.2264 191.952 19.1772 192.676 20.406C193.398 21.6372 193.761 23.1024 193.761 24.7992C193.761 26.4961 193.4 27.9321 192.676 29.1754V29.1779Z" fill="white"/>
</g>
<defs>
<clipPath id="clip0_7213_2261">
<rect width="199.379" height="52" fill="white" transform="translate(0.620728)"/>
</clipPath>
</defs>
</svg>
